<?xml version="1.0" encoding="utf-8"?>
<!-- Generator: Adobe Illustrator 21.1.0, SVG Export Plug-In . SVG Version: 6.00 Build 0)  -->
<svg version="1.1" id="Warstwa_1" xmlns="http://www.w3.org/2000/svg" xmlns:xlink="http://www.w3.org/1999/xlink" x="0px" y="0px"
	 viewBox="0 0 300 300" style="enable-background:new 0 0 300 300;" xml:space="preserve">
<path style="fill:#E4F4FE;" d="M110.1,158.5H81.9c-4.8,0-8.6,3.9-8.6,8.6v0c0,4.8,3.9,8.6,8.6,8.6h65.4c4.8,0,8.6,3.9,8.6,8.6v0
	c0,4.8-3.9,8.6-8.6,8.6H119c-4.8,0-8.6,3.9-8.6,8.6v0c0,4.8,3.9,8.6,8.6,8.6h119c4.8,0,8.6-3.9,8.6-8.6v0c0-4.8-3.9-8.6-8.6-8.6h-34
	c-4.8,0-8.6-3.9-8.6-8.6v0c0-4.8,3.9-8.6,8.6-8.6H256c4.8,0,8.6-3.9,8.6-8.6v0c0-4.8-3.9-8.6-8.6-8.6h-11.3c-4.8,0-8.6-3.9-8.6-8.6
	v0c0-4.8,3.9-8.6,8.6-8.6h5.7c4.8,0,8.6-3.9,8.6-8.6v0c0-4.8-3.9-8.6-8.6-8.6h-27.7c-4.8,0-8.6-3.9-8.6-8.6v0c0-4.8,3.9-8.6,8.6-8.6
	h62.8c4.8,0,8.6-3.9,8.6-8.6v0c0-4.8-3.9-8.6-8.6-8.6h-75.5c-4.8,0-8.6-3.9-8.6-8.6v0c0-4.8,3.9-8.6,8.6-8.6h13.3
	c4.8,0,8.6-3.9,8.6-8.6v0c0-4.8-3.9-8.6-8.6-8.6h-86.2c-4.8,0-8.6,3.9-8.6,8.6v0c0,4.8,3.9,8.6,8.6,8.6h16.2c4.8,0,8.6,3.9,8.6,8.6
	v0c0,4.8-3.9,8.6-8.6,8.6H57.6c-4.8,0-8.6,3.9-8.6,8.6v0c0,4.8,3.9,8.6,8.6,8.6h11.7c4.8,0,8.6,3.9,8.6,8.6v0c0,4.8-3.9,8.6-8.6,8.6
	H57.6c-4.8,0-8.6,3.9-8.6,8.6v0c0,4.8,3.9,8.6,8.6,8.6h52.6c4.8,0,8.6,3.9,8.6,8.6v0C118.8,154.7,114.9,158.5,110.1,158.5z
	 M196.7,149.9L196.7,149.9c0,4.8-3.9,8.6-8.6,8.6h-21.3c-4.8,0-8.6-3.9-8.6-8.6v0c0-4.8,3.9-8.6,8.6-8.6h21.3
	C192.8,141.3,196.7,145.1,196.7,149.9z"/>
<g>
	<rect x="174.3" y="93" style="fill:#FFFFFF;" width="53.8" height="153.1"/>
	<rect x="179.1" y="93" style="fill:#FAD336;" width="49" height="153.1"/>
	<rect x="185.9" y="93" style="fill:#FBB92A;" width="35.4" height="153.1"/>
	<rect x="183.2" y="101.9" style="fill:#FAD336;" width="29.4" height="4"/>
	<rect x="183.2" y="114.4" style="fill:#FAD336;" width="29.4" height="4"/>
	<rect x="183.2" y="126.9" style="fill:#FAD336;" width="29.4" height="4"/>
	<rect x="183.2" y="139.4" style="fill:#FAD336;" width="29.4" height="4"/>
	<rect x="183.2" y="151.9" style="fill:#FAD336;" width="29.4" height="4"/>
	<rect x="183.2" y="164.4" style="fill:#FAD336;" width="29.4" height="4"/>
	<rect x="183.2" y="176.9" style="fill:#FAD336;" width="29.4" height="4"/>
	<rect x="183.2" y="189.4" style="fill:#FAD336;" width="29.4" height="4"/>
	<rect x="183.2" y="201.9" style="fill:#FAD336;" width="29.4" height="4"/>
	<rect x="183.2" y="214.4" style="fill:#FAD336;" width="29.4" height="4"/>
	<rect x="183.2" y="226.9" style="fill:#FAD336;" width="29.4" height="4"/>
	<rect x="218.9" y="93" style="fill:#F97923;" width="8.6" height="153.1"/>
	
		<rect x="174.3" y="93" style="fill:none;stroke:#2B1986;stroke-width:2.7;stroke-linecap:round;stroke-linejoin:round;stroke-miterlimit:10;" width="53.8" height="153.1"/>
	
		<line style="fill:none;stroke:#2B1986;stroke-width:2.7;stroke-linecap:round;stroke-linejoin:round;stroke-miterlimit:10;" x1="218.9" y1="106.2" x2="222.7" y2="106.2"/>
	
		<polyline style="fill:none;stroke:#2B1986;stroke-width:2.7;stroke-linecap:round;stroke-linejoin:round;stroke-miterlimit:10;" points="
		174.3,106.2 182.8,106.2 188.4,106.2 213.4,106.2 	"/>
	
		<line style="fill:none;stroke:#2B1986;stroke-width:2.7;stroke-linecap:round;stroke-linejoin:round;stroke-miterlimit:10;" x1="211.1" y1="118.4" x2="216.1" y2="118.4"/>
	
		<line style="fill:none;stroke:#2B1986;stroke-width:2.7;stroke-linecap:round;stroke-linejoin:round;stroke-miterlimit:10;" x1="189.9" y1="118.4" x2="206.9" y2="118.4"/>
	
		<line style="fill:none;stroke:#2B1986;stroke-width:2.7;stroke-linecap:round;stroke-linejoin:round;stroke-miterlimit:10;" x1="174.3" y1="118.4" x2="184.4" y2="118.4"/>
	
		<line style="fill:none;stroke:#2B1986;stroke-width:2.7;stroke-linecap:round;stroke-linejoin:round;stroke-miterlimit:10;" x1="211.1" y1="130.7" x2="220.6" y2="130.7"/>
	
		<line style="fill:none;stroke:#2B1986;stroke-width:2.7;stroke-linecap:round;stroke-linejoin:round;stroke-miterlimit:10;" x1="189.9" y1="130.7" x2="207.5" y2="130.7"/>
	
		<line style="fill:none;stroke:#2B1986;stroke-width:2.7;stroke-linecap:round;stroke-linejoin:round;stroke-miterlimit:10;" x1="174.3" y1="130.7" x2="183.9" y2="130.7"/>
	
		<line style="fill:none;stroke:#2B1986;stroke-width:2.7;stroke-linecap:round;stroke-linejoin:round;stroke-miterlimit:10;" x1="204.7" y1="143" x2="208.2" y2="143"/>
	
		<line style="fill:none;stroke:#2B1986;stroke-width:2.7;stroke-linecap:round;stroke-linejoin:round;stroke-miterlimit:10;" x1="185.6" y1="143" x2="200" y2="143"/>
	
		<line style="fill:none;stroke:#2B1986;stroke-width:2.7;stroke-linecap:round;stroke-linejoin:round;stroke-miterlimit:10;" x1="174.3" y1="143" x2="180.9" y2="143"/>
	
		<line style="fill:none;stroke:#2B1986;stroke-width:2.7;stroke-linecap:round;stroke-linejoin:round;stroke-miterlimit:10;" x1="211.1" y1="155.2" x2="218.2" y2="155.2"/>
	
		<line style="fill:none;stroke:#2B1986;stroke-width:2.7;stroke-linecap:round;stroke-linejoin:round;stroke-miterlimit:10;" x1="193.9" y1="155.2" x2="207.8" y2="155.2"/>
	
		<line style="fill:none;stroke:#2B1986;stroke-width:2.7;stroke-linecap:round;stroke-linejoin:round;stroke-miterlimit:10;" x1="174.3" y1="155.2" x2="188.8" y2="155.2"/>
	
		<line style="fill:none;stroke:#2B1986;stroke-width:2.7;stroke-linecap:round;stroke-linejoin:round;stroke-miterlimit:10;" x1="205.4" y1="167.5" x2="212.6" y2="167.5"/>
	
		<line style="fill:none;stroke:#2B1986;stroke-width:2.7;stroke-linecap:round;stroke-linejoin:round;stroke-miterlimit:10;" x1="185.6" y1="167.5" x2="200.9" y2="167.5"/>
	
		<line style="fill:none;stroke:#2B1986;stroke-width:2.7;stroke-linecap:round;stroke-linejoin:round;stroke-miterlimit:10;" x1="174.3" y1="167.5" x2="180.9" y2="167.5"/>
	
		<line style="fill:none;stroke:#2B1986;stroke-width:2.7;stroke-linecap:round;stroke-linejoin:round;stroke-miterlimit:10;" x1="211.8" y1="179.7" x2="218.2" y2="179.7"/>
	
		<line style="fill:none;stroke:#2B1986;stroke-width:2.7;stroke-linecap:round;stroke-linejoin:round;stroke-miterlimit:10;" x1="185.6" y1="179.7" x2="207.8" y2="179.7"/>
	
		<line style="fill:none;stroke:#2B1986;stroke-width:2.7;stroke-linecap:round;stroke-linejoin:round;stroke-miterlimit:10;" x1="174.3" y1="179.7" x2="179.8" y2="179.7"/>
	
		<line style="fill:none;stroke:#2B1986;stroke-width:2.7;stroke-linecap:round;stroke-linejoin:round;stroke-miterlimit:10;" x1="209.8" y1="192" x2="222.7" y2="192"/>
	
		<line style="fill:none;stroke:#2B1986;stroke-width:2.7;stroke-linecap:round;stroke-linejoin:round;stroke-miterlimit:10;" x1="183.2" y1="192" x2="204.7" y2="192"/>
	
		<line style="fill:none;stroke:#2B1986;stroke-width:2.7;stroke-linecap:round;stroke-linejoin:round;stroke-miterlimit:10;" x1="174.3" y1="192" x2="178.5" y2="192"/>
	
		<line style="fill:none;stroke:#2B1986;stroke-width:2.7;stroke-linecap:round;stroke-linejoin:round;stroke-miterlimit:10;" x1="211.1" y1="204.3" x2="216.1" y2="204.3"/>
	
		<line style="fill:none;stroke:#2B1986;stroke-width:2.7;stroke-linecap:round;stroke-linejoin:round;stroke-miterlimit:10;" x1="194.5" y1="204.3" x2="206.9" y2="204.3"/>
	
		<line style="fill:none;stroke:#2B1986;stroke-width:2.7;stroke-linecap:round;stroke-linejoin:round;stroke-miterlimit:10;" x1="174.3" y1="204.3" x2="189.9" y2="204.3"/>
	
		<line style="fill:none;stroke:#2B1986;stroke-width:2.7;stroke-linecap:round;stroke-linejoin:round;stroke-miterlimit:10;" x1="213.4" y1="216.5" x2="222.7" y2="216.5"/>
	
		<line style="fill:none;stroke:#2B1986;stroke-width:2.7;stroke-linecap:round;stroke-linejoin:round;stroke-miterlimit:10;" x1="186.3" y1="216.5" x2="208.2" y2="216.5"/>
	
		<line style="fill:none;stroke:#2B1986;stroke-width:2.7;stroke-linecap:round;stroke-linejoin:round;stroke-miterlimit:10;" x1="174.3" y1="216.5" x2="181.5" y2="216.5"/>
	
		<line style="fill:none;stroke:#2B1986;stroke-width:2.7;stroke-linecap:round;stroke-linejoin:round;stroke-miterlimit:10;" x1="198.7" y1="228.8" x2="209.3" y2="228.8"/>
	
		<line style="fill:none;stroke:#2B1986;stroke-width:2.7;stroke-linecap:round;stroke-linejoin:round;stroke-miterlimit:10;" x1="185.6" y1="228.8" x2="194.5" y2="228.8"/>
	
		<line style="fill:none;stroke:#2B1986;stroke-width:2.7;stroke-linecap:round;stroke-linejoin:round;stroke-miterlimit:10;" x1="174.3" y1="228.8" x2="180.9" y2="228.8"/>
</g>
<g>
	<rect x="92.1" y="128.6" style="fill:#547CB4;" width="86" height="108.6"/>
	<rect x="92.1" y="128.6" style="fill:#9CE8F0;" width="6.5" height="108.6"/>
	<rect x="104.7" y="128.6" style="fill:#9CE8F0;" width="6.5" height="108.6"/>
	<rect x="117.2" y="128.6" style="fill:#9CE8F0;" width="6.5" height="108.6"/>
	<rect x="129.8" y="128.6" style="fill:#9CE8F0;" width="6.5" height="108.6"/>
	<rect x="170.1" y="128.6" style="fill:#465B96;" width="8" height="108.6"/>
	
		<line style="fill:none;stroke:#2B1986;stroke-width:2.7;stroke-linecap:round;stroke-linejoin:round;stroke-miterlimit:10;" x1="92.1" y1="190.1" x2="92.1" y2="155.2"/>
	
		<line style="fill:none;stroke:#2B1986;stroke-width:2.7;stroke-linecap:round;stroke-linejoin:round;stroke-miterlimit:10;" x1="92.1" y1="210.8" x2="92.1" y2="196"/>
	
		<polyline style="fill:none;stroke:#2B1986;stroke-width:2.7;stroke-linecap:round;stroke-linejoin:round;stroke-miterlimit:10;" points="
		178.1,227.5 178.1,237.2 92.1,237.2 92.1,222.8 	"/>
	
		<line style="fill:none;stroke:#2B1986;stroke-width:2.7;stroke-linecap:round;stroke-linejoin:round;stroke-miterlimit:10;" x1="178.1" y1="194.7" x2="178.1" y2="218.5"/>
	
		<polyline style="fill:none;stroke:#2B1986;stroke-width:2.7;stroke-linecap:round;stroke-linejoin:round;stroke-miterlimit:10;" points="
		92.1,137.8 92.1,128.6 178.1,128.6 178.1,173.9 	"/>
	
		<line style="fill:none;stroke:#2B1986;stroke-width:2.7;stroke-linecap:round;stroke-linejoin:round;stroke-miterlimit:10;" x1="166.6" y1="223.7" x2="166.6" y2="231.2"/>
	
		<polyline style="fill:none;stroke:#2B1986;stroke-width:2.7;stroke-linecap:round;stroke-linejoin:round;stroke-miterlimit:10;" points="
		166.6,181.7 166.6,192.6 166.6,195 166.6,219.2 	"/>
	
		<line style="fill:none;stroke:#2B1986;stroke-width:2.7;stroke-linecap:round;stroke-linejoin:round;stroke-miterlimit:10;" x1="166.6" y1="139.9" x2="166.6" y2="177.6"/>
	
		<line style="fill:none;stroke:#2B1986;stroke-width:2.7;stroke-linecap:round;stroke-linejoin:round;stroke-miterlimit:10;" x1="166.6" y1="128.6" x2="166.6" y2="137.1"/>
	
		<polyline style="fill:none;stroke:#2B1986;stroke-width:2.7;stroke-linecap:round;stroke-linejoin:round;stroke-miterlimit:10;" points="
		154.2,200.3 154.2,209.9 154.2,212.6 154.2,231.2 	"/>
	
		<line style="fill:none;stroke:#2B1986;stroke-width:2.7;stroke-linecap:round;stroke-linejoin:round;stroke-miterlimit:10;" x1="154.2" y1="156.8" x2="154.2" y2="196"/>
	
		<line style="fill:none;stroke:#2B1986;stroke-width:2.7;stroke-linecap:round;stroke-linejoin:round;stroke-miterlimit:10;" x1="154.2" y1="128.6" x2="154.2" y2="151.2"/>
	
		<line style="fill:none;stroke:#2B1986;stroke-width:2.7;stroke-linecap:round;stroke-linejoin:round;stroke-miterlimit:10;" x1="141.9" y1="222.7" x2="141.9" y2="231.2"/>
	
		<line style="fill:none;stroke:#2B1986;stroke-width:2.7;stroke-linecap:round;stroke-linejoin:round;stroke-miterlimit:10;" x1="141.9" y1="188.1" x2="141.9" y2="219.2"/>
	
		<line style="fill:none;stroke:#2B1986;stroke-width:2.7;stroke-linecap:round;stroke-linejoin:round;stroke-miterlimit:10;" x1="141.9" y1="136.2" x2="141.9" y2="183"/>
	
		<line style="fill:none;stroke:#2B1986;stroke-width:2.7;stroke-linecap:round;stroke-linejoin:round;stroke-miterlimit:10;" x1="141.9" y1="128.6" x2="141.9" y2="133.2"/>
	
		<line style="fill:none;stroke:#2B1986;stroke-width:2.7;stroke-linecap:round;stroke-linejoin:round;stroke-miterlimit:10;" x1="129.6" y1="205.9" x2="129.6" y2="231.2"/>
	
		<line style="fill:none;stroke:#2B1986;stroke-width:2.7;stroke-linecap:round;stroke-linejoin:round;stroke-miterlimit:10;" x1="129.6" y1="151.9" x2="129.6" y2="200.3"/>
	
		<line style="fill:none;stroke:#2B1986;stroke-width:2.7;stroke-linecap:round;stroke-linejoin:round;stroke-miterlimit:10;" x1="129.6" y1="128.6" x2="129.6" y2="148.1"/>
	
		<line style="fill:none;stroke:#2B1986;stroke-width:2.7;stroke-linecap:round;stroke-linejoin:round;stroke-miterlimit:10;" x1="117.2" y1="214.4" x2="117.2" y2="231.2"/>
	
		<line style="fill:none;stroke:#2B1986;stroke-width:2.7;stroke-linecap:round;stroke-linejoin:round;stroke-miterlimit:10;" x1="117.2" y1="183.4" x2="117.2" y2="212.6"/>
	
		<line style="fill:none;stroke:#2B1986;stroke-width:2.7;stroke-linecap:round;stroke-linejoin:round;stroke-miterlimit:10;" x1="117.2" y1="128.6" x2="117.2" y2="179.9"/>
	
		<line style="fill:none;stroke:#2B1986;stroke-width:2.7;stroke-linecap:round;stroke-linejoin:round;stroke-miterlimit:10;" x1="104.9" y1="222.7" x2="104.9" y2="231.2"/>
	
		<polyline style="fill:none;stroke:#2B1986;stroke-width:2.7;stroke-linecap:round;stroke-linejoin:round;stroke-miterlimit:10;" points="
		104.9,145.2 104.9,165.3 104.9,168.1 104.9,187 104.9,190.1 104.9,199.2 104.9,202.4 104.9,219.2 	"/>
	
		<line style="fill:none;stroke:#2B1986;stroke-width:2.7;stroke-linecap:round;stroke-linejoin:round;stroke-miterlimit:10;" x1="104.9" y1="128.6" x2="104.9" y2="139.1"/>
	<rect x="106.6" y="38.6" style="fill:#547CB4;" width="59.6" height="89.8"/>
	<rect x="106.6" y="38.6" style="fill:#9CE8F0;" width="6.5" height="89.8"/>
	<rect x="118.1" y="38.6" style="fill:#9CE8F0;" width="6.5" height="89.8"/>
	<rect x="129.6" y="38.6" style="fill:#9CE8F0;" width="6.5" height="89.8"/>
	<rect x="158.2" y="38.6" style="fill:#465B96;" width="8" height="89.8"/>
	
		<polyline style="fill:none;stroke:#2B1986;stroke-width:2.7;stroke-linecap:round;stroke-linejoin:round;stroke-miterlimit:10;" points="
		106.6,44.8 106.6,38.6 166.2,38.6 166.2,51.9 	"/>
	
		<line style="fill:none;stroke:#2B1986;stroke-width:2.7;stroke-linecap:round;stroke-linejoin:round;stroke-miterlimit:10;" x1="106.6" y1="116.4" x2="106.6" y2="51.9"/>
	
		<polyline style="fill:none;stroke:#2B1986;stroke-width:2.7;stroke-linecap:round;stroke-linejoin:round;stroke-miterlimit:10;" points="
		166.2,105.8 166.2,128.4 106.6,128.4 106.6,123.4 	"/>
	
		<line style="fill:none;stroke:#2B1986;stroke-width:2.7;stroke-linecap:round;stroke-linejoin:round;stroke-miterlimit:10;" x1="166.2" y1="67.9" x2="166.2" y2="98.2"/>
	
		<line style="fill:none;stroke:#2B1986;stroke-width:2.7;stroke-linecap:round;stroke-linejoin:round;stroke-miterlimit:10;" x1="154.2" y1="110.9" x2="154.2" y2="123.4"/>
	
		<line style="fill:none;stroke:#2B1986;stroke-width:2.7;stroke-linecap:round;stroke-linejoin:round;stroke-miterlimit:10;" x1="154.2" y1="97.9" x2="154.2" y2="105.8"/>
	
		<line style="fill:none;stroke:#2B1986;stroke-width:2.7;stroke-linecap:round;stroke-linejoin:round;stroke-miterlimit:10;" x1="154.2" y1="61.9" x2="154.2" y2="94.3"/>
	
		<line style="fill:none;stroke:#2B1986;stroke-width:2.7;stroke-linecap:round;stroke-linejoin:round;stroke-miterlimit:10;" x1="154.2" y1="38.6" x2="154.2" y2="57.2"/>
	
		<line style="fill:none;stroke:#2B1986;stroke-width:2.7;stroke-linecap:round;stroke-linejoin:round;stroke-miterlimit:10;" x1="141.9" y1="116.4" x2="141.9" y2="123.4"/>
	
		<line style="fill:none;stroke:#2B1986;stroke-width:2.7;stroke-linecap:round;stroke-linejoin:round;stroke-miterlimit:10;" x1="141.9" y1="87.8" x2="141.9" y2="110.7"/>
	
		<line style="fill:none;stroke:#2B1986;stroke-width:2.7;stroke-linecap:round;stroke-linejoin:round;stroke-miterlimit:10;" x1="141.9" y1="48.6" x2="141.9" y2="83.5"/>
	
		<line style="fill:none;stroke:#2B1986;stroke-width:2.7;stroke-linecap:round;stroke-linejoin:round;stroke-miterlimit:10;" x1="141.9" y1="38.6" x2="141.9" y2="42.4"/>
	
		<line style="fill:none;stroke:#2B1986;stroke-width:2.7;stroke-linecap:round;stroke-linejoin:round;stroke-miterlimit:10;" x1="129.6" y1="102.5" x2="129.6" y2="123.4"/>
	
		<line style="fill:none;stroke:#2B1986;stroke-width:2.7;stroke-linecap:round;stroke-linejoin:round;stroke-miterlimit:10;" x1="129.6" y1="59.8" x2="129.6" y2="97.9"/>
	
		<line style="fill:none;stroke:#2B1986;stroke-width:2.7;stroke-linecap:round;stroke-linejoin:round;stroke-miterlimit:10;" x1="129.6" y1="38.6" x2="129.6" y2="54.7"/>
	
		<line style="fill:none;stroke:#2B1986;stroke-width:2.7;stroke-linecap:round;stroke-linejoin:round;stroke-miterlimit:10;" x1="117.2" y1="109.5" x2="117.2" y2="123.4"/>
	
		<line style="fill:none;stroke:#2B1986;stroke-width:2.7;stroke-linecap:round;stroke-linejoin:round;stroke-miterlimit:10;" x1="117.2" y1="86.8" x2="117.2" y2="108"/>
	
		<line style="fill:none;stroke:#2B1986;stroke-width:2.7;stroke-linecap:round;stroke-linejoin:round;stroke-miterlimit:10;" x1="117.2" y1="38.6" x2="117.2" y2="81"/>
</g>
<path style="fill:#E4F4FE;" d="M143.6,55.2h-11.3c-0.8,0-33.2,0-34,0H77c-0.8,0-14.2,0-15,0h-8.2c-4.8,0-8.6,3.9-8.6,8.6v0
	c0,4.8,3.9,8.6,8.6,8.6h3.6c4.8,0,8.6,3.9,8.6,8.6s-3.9,8.6-8.6,8.6H29.2c-4.8,0-8.6,3.9-8.6,8.6s3.9,8.6,8.6,8.6h96.4
	c4.8,0,8.6-3.9,8.6-8.6s-3.9-8.6-8.6-8.6h-11.4c-4.8,0-8.6-3.9-8.6-8.6s3.9-8.6,8.6-8.6h29.5c4.8,0,8.6-3.9,8.6-8.6v0
	C152.2,59.1,148.4,55.2,143.6,55.2z"/>
<path style="fill:#E4F4FE;" d="M199.7,158.6h56.8c4.6,0,8.4,3.8,8.4,8.4v0.6c0,4.6-3.8,8.4-8.4,8.4h-56.8c-4.6,0-8.4-3.8-8.4-8.4
	v-0.6C191.2,162.4,195,158.6,199.7,158.6z"/>
<path style="fill:#E4F4FE;" d="M81.7,158.6h30.9c4.8,0,8.7,3.9,8.7,8.7v0c0,4.8-3.9,8.7-8.7,8.7H81.7c-4.8,0-8.7-3.9-8.7-8.7v0
	C73,162.5,76.9,158.6,81.7,158.6z"/>
<path style="fill:#3BE993;" d="M154.2,220.2c-56.8,0-102.9,18.5-102.9,41.2h205.8C257.1,238.7,211.1,220.2,154.2,220.2z"/>
<path style="fill:#00D085;" d="M163.2,222.2c-51.9,0-93.9,17.6-93.9,39.3h187.8C257.1,239.8,215.1,222.2,163.2,222.2z"/>
<path style="fill:none;stroke:#2B1986;stroke-width:2.7;stroke-linecap:round;stroke-linejoin:round;stroke-miterlimit:10;" d="
	M193.1,223.3c-12-2-25.1-3-38.9-3c-26.8,0-51.2,4.1-69.5,10.8"/>
<path style="fill:#00A765;" d="M200.6,237.8c-31.2,0-56.5,10.6-56.5,23.7h113C257.1,248.4,231.8,237.8,200.6,237.8z"/>
<path style="fill:none;stroke:#2B1986;stroke-width:2.7;stroke-linecap:round;stroke-linejoin:round;stroke-miterlimit:10;" d="
	M232.3,234.6c-7.7-3.6-16.8-6.6-27.1-9"/>
<path style="fill:none;stroke:#2B1986;stroke-width:2.7;stroke-linecap:round;stroke-linejoin:round;stroke-miterlimit:10;" d="
	M257.1,261.5c0-7.4-4.9-14.4-13.5-20.5"/>
<path style="fill:none;stroke:#2B1986;stroke-width:2.7;stroke-linecap:round;stroke-linejoin:round;stroke-miterlimit:10;" d="
	M257.1,261.5"/>
<path style="fill:none;stroke:#2B1986;stroke-width:2.7;stroke-linecap:round;stroke-linejoin:round;stroke-miterlimit:10;" d="
	M51.4,261.5"/>
<path style="fill:none;stroke:#2B1986;stroke-width:2.7;stroke-linecap:round;stroke-linejoin:round;stroke-miterlimit:10;" d="
	M77.6,234c-16.3,7.3-26.3,16.9-26.3,27.5"/>
<g>
	<g>
		
			<line style="fill:none;stroke:#2B1986;stroke-width:2;stroke-linecap:round;stroke-miterlimit:10;" x1="59.8" y1="48.2" x2="70.2" y2="58.7"/>
		
			<line style="fill:none;stroke:#2B1986;stroke-width:2;stroke-linecap:round;stroke-miterlimit:10;" x1="70.2" y1="48.2" x2="59.8" y2="58.7"/>
	</g>
	<g>
		
			<line style="fill:none;stroke:#2B1986;stroke-width:2;stroke-linecap:round;stroke-miterlimit:10;" x1="238.7" y1="182" x2="252.2" y2="195.6"/>
		
			<line style="fill:none;stroke:#2B1986;stroke-width:2;stroke-linecap:round;stroke-miterlimit:10;" x1="252.2" y1="182" x2="238.7" y2="195.6"/>
	</g>
	
		<circle style="fill:none;stroke:#2B1986;stroke-width:2;stroke-linecap:round;stroke-miterlimit:10;" cx="245.4" cy="37.9" r="6.4"/>
	
		<circle style="fill:none;stroke:#2B1986;stroke-width:2;stroke-linecap:round;stroke-miterlimit:10;" cx="58.6" cy="219.4" r="6.4"/>
	<g>
		
			<line style="fill:none;stroke:#2B1986;stroke-width:2;stroke-linecap:round;stroke-miterlimit:10;" x1="256.9" y1="91.6" x2="256.8" y2="101"/>
		
			<line style="fill:none;stroke:#2B1986;stroke-width:2;stroke-linecap:round;stroke-miterlimit:10;" x1="243.5" y1="97.4" x2="250.1" y2="104.1"/>
		
			<line style="fill:none;stroke:#2B1986;stroke-width:2;stroke-linecap:round;stroke-miterlimit:10;" x1="238.1" y1="110.9" x2="247.5" y2="111"/>
		
			<line style="fill:none;stroke:#2B1986;stroke-width:2;stroke-linecap:round;stroke-miterlimit:10;" x1="243.8" y1="124.3" x2="250.5" y2="117.7"/>
		
			<line style="fill:none;stroke:#2B1986;stroke-width:2;stroke-linecap:round;stroke-miterlimit:10;" x1="257.4" y1="129.7" x2="257.4" y2="120.3"/>
		
			<line style="fill:none;stroke:#2B1986;stroke-width:2;stroke-linecap:round;stroke-miterlimit:10;" x1="270.8" y1="123.9" x2="264.2" y2="117.2"/>
		
			<line style="fill:none;stroke:#2B1986;stroke-width:2;stroke-linecap:round;stroke-miterlimit:10;" x1="276.2" y1="110.4" x2="266.8" y2="110.3"/>
		
			<line style="fill:none;stroke:#2B1986;stroke-width:2;stroke-linecap:round;stroke-miterlimit:10;" x1="270.4" y1="97" x2="263.7" y2="103.6"/>
	</g>
</g>
</svg>
