<?xml version="1.0" encoding="UTF-8" standalone="no"?>
<svg width="60px" height="54px" viewBox="0 0 60 54" version="1.1" xmlns="http://www.w3.org/2000/svg" xmlns:xlink="http://www.w3.org/1999/xlink" xmlns:sketch="http://www.bohemiancoding.com/sketch/ns">
    <!-- Generator: Sketch 3.4 (15575) - http://www.bohemiancoding.com/sketch -->
    <title>camera-digital</title>
    <desc>Created with Sketch.</desc>
    <defs></defs>
    <g id="Photo" stroke="none" stroke-width="1" fill="none" fill-rule="evenodd" sketch:type="MSPage">
        <g id="Icon-3" sketch:type="MSArtboardGroup" transform="translate(0.000000, -6.000000)" fill="#000000">
            <path d="M40.1621,31 L43.3161,32.051 C43.6151,32.151 43.8501,32.385 43.9491,32.684 L45.0001,35.838 L46.0511,32.684 C46.1501,32.385 46.3851,32.151 46.6831,32.051 L49.8381,31 L46.6831,29.949 C46.3851,29.849 46.1501,29.615 46.0511,29.316 L45.0001,26.162 L43.9491,29.316 C43.8501,29.615 43.6151,29.849 43.3161,29.949 L40.1621,31 Z M42.2091,33.791 L36.6831,31.949 C36.2751,31.812 36.0001,31.431 36.0001,31 C36.0001,30.569 36.2751,30.188 36.6831,30.051 L42.2091,28.209 L44.0511,22.684 C44.1871,22.275 44.5691,22 45.0001,22 C45.4311,22 45.8121,22.275 45.9491,22.684 L47.7911,28.209 L53.3161,30.051 C53.7251,30.188 54.0001,30.569 54.0001,31 C54.0001,31.431 53.7251,31.812 53.3161,31.949 L47.7911,33.791 L45.9491,39.316 C45.8121,39.725 45.4311,40 45.0001,40 C44.5691,40 44.1871,39.725 44.0511,39.316 L42.2091,33.791 Z M7.1341,12.572 C7.3191,12.893 7.6551,13.072 8.0011,13.072 C8.1701,13.072 8.3421,13.029 8.5001,12.938 C8.9781,12.662 9.1421,12.05 8.8661,11.572 L6.8661,8.107 C6.5891,7.629 5.9791,7.465 5.5001,7.741 C5.0221,8.018 4.8581,8.629 5.1341,9.107 L7.1341,12.572 Z M15.5001,12.938 C15.6581,13.029 15.8291,13.072 15.9991,13.072 C16.3451,13.072 16.6811,12.893 16.8661,12.572 L18.8661,9.107 C19.1421,8.629 18.9781,8.018 18.5001,7.741 C18.0201,7.465 17.4101,7.629 17.1341,8.107 L15.1341,11.572 C14.8581,12.051 15.0221,12.662 15.5001,12.938 L15.5001,12.938 Z M12.0001,12 C12.5521,12 13.0001,11.552 13.0001,11 L13.0001,7 C13.0001,6.448 12.5521,6 12.0001,6 C11.4481,6 11.0001,6.448 11.0001,7 L11.0001,11 C11.0001,11.552 11.4481,12 12.0001,12 L12.0001,12 Z M41.0001,16 L27.0001,16 C26.4481,16 26.0001,16.448 26.0001,17 C26.0001,17.552 26.4481,18 27.0001,18 L41.0001,18 C41.5531,18 42.0001,17.552 42.0001,17 C42.0001,16.448 41.5531,16 41.0001,16 L41.0001,16 Z M55.0001,18 L49.0001,18 C47.6581,18 46.8981,16.562 46.8941,16.553 L45.9031,14.571 C45.0481,12.769 43.8811,12 42.0001,12 L26.0001,12 C24.0461,12 22.9121,12.75 22.1051,14.553 L21.1081,16.547 C21.1011,16.562 20.3421,18 19.0001,18 L16.0001,18 L16.0001,17 C16.0001,16.448 15.5521,16 15.0001,16 L9.0001,16 C8.4481,16 8.0001,16.448 8.0001,17 L8.0001,18 L5.0001,18 C2.2431,18 0.0001,20.243 0.0001,23 L0.0001,39 C0.0001,39.552 0.4481,40 1.0001,40 C1.5521,40 2.0001,39.552 2.0001,39 L2.0001,23 C2.0001,21.346 3.3461,20 5.0001,20 L9.0001,20 C9.5521,20 10.0001,19.552 10.0001,19 L10.0001,18 L14.0001,18 L14.0001,19 C14.0001,19.552 14.4481,20 15.0001,20 L19.0001,20 C21.5881,20 22.8421,17.551 22.8941,17.447 L23.9121,15.409 C24.4531,14.204 24.9081,14 26.0001,14 L42.0001,14 C42.9801,14 43.5161,14.207 44.1051,15.447 L45.1051,17.447 C45.1581,17.551 46.4121,20 49.0001,20 L55.0001,20 C56.6541,20 58.0001,21.346 58.0001,23 L58.0001,39 C58.0001,39.552 58.4471,40 59.0001,40 C59.5531,40 60.0001,39.552 60.0001,39 L60.0001,23 C60.0001,20.243 57.7571,18 55.0001,18 L55.0001,18 Z M59.0001,42 L49.0001,42 C48.4471,42 48.0001,42.448 48.0001,43 C48.0001,43.552 48.4471,44 49.0001,44 L58.0001,44 L58.0001,55 C58.0001,56.654 56.6541,58 55.0001,58 L5.0001,58 C3.3461,58 2.0001,56.654 2.0001,55 L2.0001,44 L11.0001,44 C11.5521,44 12.0001,43.552 12.0001,43 C12.0001,42.448 11.5521,42 11.0001,42 L1.0001,42 C0.4481,42 0.0001,42.448 0.0001,43 L0.0001,55 C0.0001,57.757 2.2431,60 5.0001,60 L55.0001,60 C57.7571,60 60.0001,57.757 60.0001,55 L60.0001,43 C60.0001,42.448 59.5531,42 59.0001,42 L59.0001,42 Z M30.0001,32 C29.4471,32 29.0001,32.448 29.0001,33 C29.0001,33.552 29.4471,34 30.0001,34 C32.2051,34 34.0001,35.794 34.0001,38 C34.0001,38.552 34.4471,39 35.0001,39 C35.5531,39 36.0001,38.552 36.0001,38 C36.0001,34.691 33.3081,32 30.0001,32 L30.0001,32 Z M35.2201,27.191 C33.5861,26.401 31.8291,26 30.0001,26 C23.3831,26 18.0001,31.383 18.0001,38 C18.0001,44.617 23.3831,50 30.0001,50 C36.6171,50 42.0001,44.617 42.0001,38 C42.0001,37.323 41.9431,36.645 41.8321,35.984 C41.7391,35.44 41.2211,35.071 40.6801,35.165 C40.1351,35.257 39.7671,35.773 39.8591,36.317 C39.9531,36.869 40.0001,37.435 40.0001,38 C40.0001,43.514 35.5141,48 30.0001,48 C24.4861,48 20.0001,43.514 20.0001,38 C20.0001,32.486 24.4861,28 30.0001,28 C31.5251,28 32.9881,28.334 34.3491,28.992 C34.8441,29.231 35.4431,29.025 35.6841,28.527 C35.9251,28.03 35.7171,27.432 35.2201,27.191 L35.2201,27.191 Z M30.0001,22 C33.4941,22 36.8151,23.107 39.6021,25.201 C40.0441,25.532 40.1331,26.159 39.8011,26.601 C39.4711,27.042 38.8441,27.132 38.4011,26.799 C35.9631,24.968 33.0581,24 30.0001,24 C22.2801,24 16.0001,30.28 16.0001,38 C16.0001,45.72 22.2801,52 30.0001,52 C35.9251,52 41.2301,48.25 43.2031,42.667 C43.3871,42.146 43.9591,41.873 44.4791,42.057 C45.0001,42.241 45.2731,42.813 45.0901,43.333 C42.8351,49.713 36.7711,54 30.0001,54 C21.1781,54 14.0001,46.822 14.0001,38 C14.0001,29.178 21.1781,22 30.0001,22 L30.0001,22 Z" id="camera-digital" sketch:type="MSShapeGroup"></path>
        </g>
    </g>
</svg>