<?xml version="1.0" encoding="utf-8"?>
<!-- Generator: Adobe Illustrator 21.1.0, SVG Export Plug-In . SVG Version: 6.00 Build 0)  -->
<svg version="1.1" id="Warstwa_1" xmlns="http://www.w3.org/2000/svg" xmlns:xlink="http://www.w3.org/1999/xlink" x="0px" y="0px"
	 viewBox="0 0 300 300" style="enable-background:new 0 0 300 300;" xml:space="preserve">
<g>
	<path style="fill:#FFE558;" d="M76.4,113.8H47.9c-0.7,0-1.4-0.1-2.1-0.3H34.9c-4.8,0-8.6-3.9-8.6-8.6c0-4.8,3.9-8.6,8.6-8.6H87
		c4.8,0,8.6-3.9,8.6-8.6v0c0-4.8-3.9-8.6-8.6-8.6l-36.2-0.7c-4.8,0-8.6-3.9-8.6-8.6s3.9-8.6,8.6-8.6l109.2,0.7
		c4.8,0,8.6,3.9,8.6,8.6s-3.9,8.6-8.6,8.6h-16.2c-4.8,0-8.6,3.9-8.6,8.6v0c0,4.8,3.9,8.6,8.6,8.6h95.8c4.8,0,8.6,3.9,8.6,8.6
		c0,4.8-3.9,8.6-8.6,8.6h-11.7c-4.8,0-8.6,3.9-8.6,8.6s3.9,8.6,8.6,8.6h46.8c4.8,0,8.6,3.9,8.6,8.6s-3.9,8.6-8.6,8.6h-26
		c-0.7,0.2-1.4,0.3-2.1,0.3h-11.7c-4.8,0-8.6,3.9-8.6,8.6s3.9,8.6,8.6,8.6h46.8c4.8,0,8.6,3.9,8.6,8.6v0c0,4.8-3.9,8.6-8.6,8.6
		h-87.6c-4.8,0-8.6,3.9-8.6,8.6s3.9,8.6,8.6,8.6h8.2c4.8,0,8.6,3.9,8.6,8.6s-3.9,8.6-8.6,8.6h-45.3c-4.8,0-8.6,3.9-8.6,8.6
		c0,4.8,3.9,8.6,8.6,8.6h28.3c4.8,0,8.6,3.9,8.6,8.6v0c0,4.8-3.9,8.6-8.6,8.6h-119c-4.8,0-8.6-3.9-8.6-8.6v0c0-4.8,3.9-8.6,8.6-8.6
		h34c4.8,0,8.6-3.9,8.6-8.6c0-4.8-3.9-8.6-8.6-8.6H48c-4.8,0-8.6-3.9-8.6-8.6s3.9-8.6,8.6-8.6h9c0.7-0.2,1.4-0.3,2.1-0.3h2.3
		c3.8-0.9,6.5-4.3,6.5-8.4c0-4.8-3.9-8.6-8.6-8.6h-5.7c-0.7,0-1.4-0.1-2.1-0.3H41.1c-4.8,0-8.6-3.9-8.6-8.6s3.9-8.6,8.6-8.6h11.3
		c4.8,0,8.6-3.9,8.6-8.6v0c0-4-2.8-7.4-6.5-8.4H18.5c-4.8,0-8.6-3.9-8.6-8.6s3.9-8.6,8.6-8.6h26c0.7-0.2,1.4-0.3,2.1-0.3h27.7
		c4.8,0,8.6-3.9,8.6-8.6C82.9,118.1,80.1,114.7,76.4,113.8z"/>
	<g>
		<path style="fill:#FFFFFF;" d="M158.8,187.2H68c-6.7,0-12.2-5.4-12.2-12.2V64.2C55.9,57.5,61.3,52,68,52h90.8
			c6.7,0,12.2,5.4,12.2,12.2V175C171,181.7,165.5,187.2,158.8,187.2z"/>
		<path style="fill:#ACD1FC;" d="M158.4,187.2H73.6c-6.7,0-12.2-5.4-12.2-12.2V64.2c0-6.7,5.4-12.2,12.2-12.2h84.8
			c6.7,0,12.2,5.4,12.2,12.2V175C170.6,181.7,165.1,187.2,158.4,187.2z"/>
		<path style="fill:#DDEFFF;" d="M154.6,187.2H73.1c-6.4,0-11.6-5.2-11.6-11.6V63.6c0-6.4,5.2-11.6,11.6-11.6h81.5
			c6.4,0,11.6,5.2,11.6,11.6v111.9C166.2,182,161,187.2,154.6,187.2z"/>
		<path style="fill:#9CE8F0;" d="M153.2,175.1H73.6c-3.1,0-5.6-2.5-5.6-5.6V69.8c0-3.1,2.5-5.6,5.6-5.6h79.6c3.1,0,5.6,2.5,5.6,5.6
			v99.7C158.9,172.6,156.3,175.1,153.2,175.1z"/>
		
			<line style="fill:none;stroke:#2B1986;stroke-width:2.7;stroke-linecap:round;stroke-linejoin:round;stroke-miterlimit:10;" x1="55.9" y1="105.2" x2="55.9" y2="84.5"/>
		<path style="fill:#547CB4;" d="M68,132.1l36-26.9l17,17l11.1-11.1l26.8,26.8v30.3c0,3.8-3.1,6.8-6.8,6.8H74.8
			c-3.8,0-6.8-3.1-6.8-6.8V132.1z"/>
		<path style="fill:none;stroke:#2B1986;stroke-width:2.7;stroke-linecap:round;stroke-linejoin:round;stroke-miterlimit:10;" d="
			M55.9,74.7V64.2C55.9,57.5,61.3,52,68,52h90.8c6.7,0,12.2,5.4,12.2,12.2V175c0,6.7-5.4,12.2-12.2,12.2H68
			c-6.7,0-12.2-5.4-12.2-12.2v-52.2"/>
		<path style="fill:none;stroke:#2B1986;stroke-width:2.7;stroke-linecap:round;stroke-linejoin:round;stroke-miterlimit:10;" d="
			M158.9,128.1v41.4c0,3.1-2.5,5.6-5.6,5.6H73.6c-3.1,0-5.6-2.5-5.6-5.6V69.8c0-3.1,2.5-5.6,5.6-5.6h79.6c3.1,0,5.6,2.5,5.6,5.6v36"
			/>
		
			<line style="fill:none;stroke:#FFFFFF;stroke-width:2.7;stroke-linecap:round;stroke-linejoin:round;stroke-miterlimit:10;" x1="73.6" y1="102" x2="73.6" y2="106.7"/>
		<path style="fill:none;stroke:#FFFFFF;stroke-width:2.7;stroke-linecap:round;stroke-linejoin:round;stroke-miterlimit:10;" d="
			M95.7,69.8H75.3c-0.9,0-1.7,0.7-1.7,1.7v21.2"/>
		
			<polyline style="fill:none;stroke:#2B1986;stroke-width:2.7;stroke-linecap:round;stroke-linejoin:round;stroke-miterlimit:10;" points="
			68,132.1 104,105.2 121,122.2 132.1,111.2 146.2,125.3 		"/>
	</g>
	<g>
		<path style="fill:#FFFFFF;" d="M245.2,226.7H111.8c-5.7,0-10.4-4.6-10.4-10.4V143c0-5.7,4.6-10.4,10.4-10.4h133.4
			c5.7,0,10.4,4.6,10.4,10.4v73.3C255.5,222.1,250.9,226.7,245.2,226.7z"/>
		<circle style="fill:#FFFFFF;" cx="178.5" cy="179.7" r="37.2"/>
		<path style="fill:#FFFFFF;" d="M212.1,132.1h-66.5l5.1-16.9c1.6-5.1,6.3-8.6,11.6-8.6h33c5.3,0,10.1,3.5,11.6,8.6L212.1,132.1z"/>
		<circle style="fill:#FFFFFF;" cx="178.5" cy="179.7" r="27.3"/>
		<path style="fill:#933C00;" d="M245.5,226.7H117.1c-5.7,0-10.4-4.6-10.4-10.4V143c0-5.7,4.6-10.4,10.4-10.4h128.4
			c5.7,0,10.4,4.6,10.4,10.4v73.3C255.8,222.1,251.2,226.7,245.5,226.7z"/>
		<path style="fill:#C57500;" d="M236.9,226.7H116.6c-5.5,0-9.9-4.4-9.9-9.9v-74.3c0-5.5,4.4-9.9,9.9-9.9h120.3
			c5.5,0,9.9,4.4,9.9,9.9v74.3C246.7,222.3,242.3,226.7,236.9,226.7z"/>
		<circle style="fill:#FFFFFF;" cx="178.5" cy="179.7" r="37.2"/>
		<circle style="fill:#782800;" cx="183.8" cy="179.7" r="37.2"/>
		<ellipse style="fill:#C57500;" cx="181.1" cy="179.7" rx="34.5" ry="37.2"/>
		<path style="fill:#933C00;" d="M212.5,132.1H150l5.1-16.9c1.6-5.1,6.3-8.6,11.6-8.6h29c5.3,0,10.1,3.5,11.6,8.6L212.5,132.1z"/>
		<ellipse style="fill:#547CB4;" cx="181.1" cy="179.7" rx="24.6" ry="27.3"/>
		<ellipse style="fill:#9CE8F0;" cx="175.7" cy="179.1" rx="24.5" ry="25"/>
		<path style="fill:#A74F00;" d="M206.9,132.1H150l4.6-16.9c1.4-5.1,5.6-8.6,10.5-8.6h26.8c4.8,0,9.1,3.5,10.5,8.6L206.9,132.1z"/>
		<path style="fill:none;stroke:#2B1986;stroke-width:2.7;stroke-linecap:round;stroke-linejoin:round;stroke-miterlimit:10;" d="
			M100.8,149.4v-7c0-5.7,4.6-10.4,10.4-10.4h7.9"/>
		
			<line style="fill:none;stroke:#2B1986;stroke-width:2.7;stroke-linecap:round;stroke-linejoin:round;stroke-miterlimit:10;" x1="100.8" y1="171.4" x2="100.8" y2="162"/>
		<path style="fill:none;stroke:#2B1986;stroke-width:2.7;stroke-linecap:round;stroke-linejoin:round;stroke-miterlimit:10;" d="
			M254.9,195.7v20c0,5.7-4.6,10.4-10.4,10.4H111.1c-5.7,0-10.4-4.6-10.4-10.4v-36.7"/>
		<path style="fill:none;stroke:#2B1986;stroke-width:2.7;stroke-linecap:round;stroke-linejoin:round;stroke-miterlimit:10;" d="
			M130.7,132.1h113.9c5.7,0,10.4,4.6,10.4,10.4v33.7"/>
		<path style="fill:none;stroke:#2B1986;stroke-width:2.7;stroke-linecap:round;stroke-linejoin:round;stroke-miterlimit:10;" d="
			M141.9,169.5c1-3.6,2.4-6.9,4.4-10"/>
		<path style="fill:none;stroke:#2B1986;stroke-width:2.7;stroke-linecap:round;stroke-linejoin:round;stroke-miterlimit:10;" d="
			M157.1,148.3c5.9-4,13.1-6.4,20.8-6.4c20.5,0,37.2,16.6,37.2,37.2s-16.6,37.2-37.2,37.2s-37.2-16.6-37.2-37.2c0-0.6,0-1.3,0-1.9"
			/>
		<path style="fill:none;stroke:#2B1986;stroke-width:2.7;stroke-linecap:round;stroke-linejoin:round;stroke-miterlimit:10;" d="
			M153.7,109.2c2.2-1.9,5-3.1,8.1-3.1h33c5.3,0,10.1,3.5,11.6,8.6l5.1,16.9h-66.5l4.4-14.4"/>
		<path style="fill:none;stroke:#2B1986;stroke-width:2.7;stroke-linecap:round;stroke-linejoin:round;stroke-miterlimit:10;" d="
			M205.1,180.9c-0.9,14.2-12.7,25.5-27.2,25.5c-15.1,0-27.3-12.2-27.3-27.3s12.2-27.3,27.3-27.3c10.6,0,19.8,6.1,24.3,14.9"/>
		
			<line style="fill:none;stroke:#FFFFFF;stroke-width:2.7;stroke-linecap:round;stroke-linejoin:round;stroke-miterlimit:10;" x1="113.9" y1="178.3" x2="113.9" y2="184.1"/>
		<path style="fill:none;stroke:#FFFFFF;stroke-width:2.7;stroke-linecap:round;stroke-linejoin:round;stroke-miterlimit:10;" d="
			M141.3,138.4h-19.5c-4.4,0-7.9,3.5-7.9,7.9v20.5"/>
		<path style="fill:none;stroke:#FFFFFF;stroke-width:2.7;stroke-linecap:round;stroke-linejoin:round;stroke-miterlimit:10;" d="
			M158.9,183.1c-0.4-1.5-0.6-3.1-0.6-4.8c0-8.6,5.5-15.8,13.3-18.4"/>
		<path style="fill:none;stroke:#FFFFFF;stroke-width:2.7;stroke-linecap:round;stroke-linejoin:round;stroke-miterlimit:10;" d="
			M163.8,191.9c-1.4-1.4-2.6-3-3.5-4.8"/>
	</g>
	<path style="fill:#FFFFFF;" d="M191.1,123.9h-24.3c-2.6,0-4.7-2.1-4.7-4.7v0c0-2.6,2.1-4.7,4.7-4.7h24.3c2.6,0,4.7,2.1,4.7,4.7v0
		C195.7,121.9,193.6,123.9,191.1,123.9z"/>
	<g>
		<g>
			
				<line style="fill:none;stroke:#2B1986;stroke-width:2;stroke-linecap:round;stroke-miterlimit:10;" x1="47.6" y1="68.1" x2="58" y2="78.6"/>
			
				<line style="fill:none;stroke:#2B1986;stroke-width:2;stroke-linecap:round;stroke-miterlimit:10;" x1="58" y1="68.1" x2="47.6" y2="78.6"/>
		</g>
		<g>
			
				<line style="fill:none;stroke:#2B1986;stroke-width:2;stroke-linecap:round;stroke-miterlimit:10;" x1="261.2" y1="241.9" x2="274.7" y2="255.5"/>
			
				<line style="fill:none;stroke:#2B1986;stroke-width:2;stroke-linecap:round;stroke-miterlimit:10;" x1="274.7" y1="241.9" x2="261.2" y2="255.5"/>
		</g>
		
			<circle style="fill:none;stroke:#2B1986;stroke-width:2;stroke-linecap:round;stroke-miterlimit:10;" cx="233.3" cy="57.8" r="6.4"/>
		
			<circle style="fill:none;stroke:#2B1986;stroke-width:2;stroke-linecap:round;stroke-miterlimit:10;" cx="46.4" cy="239.3" r="6.4"/>
		<g>
			
				<line style="fill:none;stroke:#2B1986;stroke-width:2;stroke-linecap:round;stroke-miterlimit:10;" x1="216.3" y1="87" x2="216.2" y2="96.5"/>
			
				<line style="fill:none;stroke:#2B1986;stroke-width:2;stroke-linecap:round;stroke-miterlimit:10;" x1="202.9" y1="92.8" x2="209.5" y2="99.5"/>
			
				<line style="fill:none;stroke:#2B1986;stroke-width:2;stroke-linecap:round;stroke-miterlimit:10;" x1="197.5" y1="106.4" x2="206.9" y2="106.4"/>
			
				<line style="fill:none;stroke:#2B1986;stroke-width:2;stroke-linecap:round;stroke-miterlimit:10;" x1="203.3" y1="119.8" x2="210" y2="113.1"/>
			
				<line style="fill:none;stroke:#2B1986;stroke-width:2;stroke-linecap:round;stroke-miterlimit:10;" x1="216.8" y1="125.2" x2="216.9" y2="115.7"/>
			
				<line style="fill:none;stroke:#2B1986;stroke-width:2;stroke-linecap:round;stroke-miterlimit:10;" x1="230.2" y1="119.4" x2="223.6" y2="112.7"/>
			
				<line style="fill:none;stroke:#2B1986;stroke-width:2;stroke-linecap:round;stroke-miterlimit:10;" x1="235.6" y1="105.8" x2="226.2" y2="105.8"/>
			
				<line style="fill:none;stroke:#2B1986;stroke-width:2;stroke-linecap:round;stroke-miterlimit:10;" x1="229.8" y1="92.4" x2="223.1" y2="99.1"/>
		</g>
	</g>
</g>
</svg>
