<?xml version="1.0" encoding="utf-8"?>
<!-- Generator: Adobe Illustrator 21.1.0, SVG Export Plug-In . SVG Version: 6.00 Build 0)  -->
<svg version="1.1" id="Warstwa_1" xmlns="http://www.w3.org/2000/svg" xmlns:xlink="http://www.w3.org/1999/xlink" x="0px" y="0px"
	 viewBox="0 0 300 300" style="enable-background:new 0 0 300 300;" xml:space="preserve">
<g>
	<g>
		<path style="fill:#F14D88;" d="M200.2,143.1h8.2c4.8,0,8.6-3.9,8.6-8.6v0c0-4.8-3.9-8.6-8.6-8.6H198c-4.8,0-8.6-3.9-8.6-8.6v0
			c0-4.8,3.9-8.6,8.6-8.6h28.3c4.8,0,8.6-3.9,8.6-8.6v0c0-4.8-3.9-8.6-8.6-8.6h-154c-4.8,0-8.6,3.9-8.6,8.6v0c0,4.8,3.9,8.6,8.6,8.6
			h34c4.8,0,8.6,3.9,8.6,8.6v0c0,4.8-3.9,8.6-8.6,8.6H54.3c-4.8,0-8.6,3.9-8.6,8.6v0c0,4.8,3.9,8.6,8.6,8.6h11.3
			c4.8,0,8.6,3.9,8.6,8.6v0c0,4.8-3.9,8.6-8.6,8.6h-5.7c-4.8,0-8.6,3.9-8.6,8.6v0c0,4.8,3.9,8.6,8.6,8.6h27.7c4.8,0,8.6,3.9,8.6,8.6
			v0c0,4.8-3.9,8.6-8.6,8.6H24.7c-4.8,0-8.6,3.9-8.6,8.6v0c0,4.8,3.9,8.6,8.6,8.6h75.5c4.8,0,8.6,3.9,8.6,8.6v0
			c0,4.8-3.9,8.6-8.6,8.6H54.1c-4.8,0-8.6,3.9-8.6,8.6v0c0,4.8,3.9,8.6,8.6,8.6h119c4.8,0,8.6-3.9,8.6-8.6v0c0-4.8-3.9-8.6-8.6-8.6
			h-16.2c-4.8,0-8.6-3.9-8.6-8.6v0c0-4.8,3.9-8.6,8.6-8.6h95.8c4.8,0,8.6-3.9,8.6-8.6v0c0-4.8-3.9-8.6-8.6-8.6H241
			c-4.8,0-8.6-3.9-8.6-8.6v0c0-4.8,3.9-8.6,8.6-8.6h46.8c4.8,0,8.6-3.9,8.6-8.6v0c0-4.8-3.9-8.6-8.6-8.6h-87.6
			c-4.8,0-8.6-3.9-8.6-8.6v0C191.6,147,195.4,143.1,200.2,143.1z M113.6,151.7L113.6,151.7c0-4.8,3.9-8.6,8.6-8.6h21.3
			c4.8,0,8.6,3.9,8.6,8.6v0c0,4.8-3.9,8.6-8.6,8.6h-21.3C117.5,160.4,113.6,156.5,113.6,151.7z"/>
		<path style="fill:#F14D88;" d="M9.4,169L9.4,169c0,4.8,3.9,8.6,8.6,8.6h13.6c4.8,0,8.6-3.9,8.6-8.6v0c0-4.8-3.9-8.6-8.6-8.6H18.1
			C13.3,160.4,9.4,164.2,9.4,169z"/>
	</g>
	<g>
		<g>
			
				<rect x="128.8" y="86.1" transform="matrix(0.7071 -0.7071 0.7071 0.7071 -70.6738 146.0115)" style="fill:#8B0645;" width="24.1" height="144.4"/>
			
				<rect x="71.9" y="93.1" transform="matrix(0.7071 -0.7071 0.7071 0.7071 -47.0753 89.143)" style="fill:#6D575C;" width="24.2" height="16.5"/>
			<polygon style="fill:#DA780A;" points="219.5,240.3 179.6,221.7 200.9,200.5 			"/>
			
				<rect x="124.6" y="89.8" transform="matrix(0.7071 -0.7071 0.7071 0.7071 -74.3791 144.4767)" style="fill:#FFFFFF;" width="25.2" height="144.4"/>
			
				<rect x="67.7" y="96.9" transform="matrix(0.7071 -0.7071 0.7071 0.7071 -50.8171 87.5931)" style="fill:#FFFFFF;" width="25.2" height="16.5"/>
			<polygon style="fill:#FFD7A9;" points="219.2,240.6 179.4,222 197.2,204.2 			"/>
			<path style="fill:#FFFFFF;" d="M86.8,87l-21.2,21.2l-1.1-1.1c-5.9-5.9-5.9-15.4,0-21.2l0,0c5.9-5.9,15.4-5.9,21.2,0L86.8,87z"/>
			
				<rect x="131.5" y="87" transform="matrix(0.7071 -0.7071 0.7071 0.7071 -71.5506 145.6483)" style="fill:#F10548;" width="17.2" height="144.4"/>
			
				<rect x="74.6" y="94.1" transform="matrix(0.7071 -0.7071 0.7071 0.7071 -47.9887 88.7647)" style="fill:#91859C;" width="17.2" height="16.5"/>
			<polygon style="fill:#FFAC0A;" points="220.3,239.5 185,216.3 197.2,204.2 			"/>
			<path style="fill:#F10548;" d="M86.8,87l-15.6,15.6l-3.9-3.9c-4.3-4.3-4.3-11.3,0-15.6l0,0c4.3-4.3,11.3-4.3,15.6,0L86.8,87z"/>
			<g>
				
					<line style="fill:none;stroke:#2B1986;stroke-width:2.7;stroke-linecap:round;stroke-linejoin:round;stroke-miterlimit:10;" x1="157.5" y1="200.1" x2="108.1" y2="150.7"/>
				
					<polyline style="fill:none;stroke:#2B1986;stroke-width:2.7;stroke-linecap:round;stroke-linejoin:round;stroke-miterlimit:10;" points="
					151.7,151.9 200.6,200.8 179.4,222 165.7,208.3 				"/>
				
					<polyline style="fill:none;stroke:#2B1986;stroke-width:2.7;stroke-linecap:round;stroke-linejoin:round;stroke-miterlimit:10;" points="
					92.5,135.1 77.3,119.9 98.5,98.7 142,142.2 				"/>
				
					<rect x="67" y="95.2" transform="matrix(0.7071 -0.7071 0.7071 0.7071 -49.1082 88.3009)" style="fill:none;stroke:#2B1986;stroke-width:2.7;stroke-linecap:round;stroke-linejoin:round;stroke-miterlimit:10;" width="30" height="16.5"/>
				
					<polyline style="fill:none;stroke:#2B1986;stroke-width:2.7;stroke-linecap:round;stroke-linejoin:round;stroke-miterlimit:10;" points="
					193.4,228.5 179.4,222 200.6,200.8 219.2,240.6 201.6,232.4 				"/>
				<path style="fill:none;stroke:#2B1986;stroke-width:2.7;stroke-linecap:round;stroke-linejoin:round;stroke-miterlimit:10;" d="
					M61.4,90.4c0.7-1.6,1.8-3.1,3.1-4.5l0,0c5.9-5.9,15.4-5.9,21.2,0l1.1,1.1l-21.2,21.2l-1.1-1.1c-2.5-2.5-4-5.7-4.3-9"/>
			</g>
		</g>
		<g>
			
				<rect x="79.6" y="141.5" transform="matrix(0.7071 0.7071 -0.7071 0.7071 159.8227 -36.1845)" style="fill:#FFDA96;" width="88" height="66.8"/>
			<path style="fill:#FFFFFF;" d="M193.2,153.7l-11-11c-3.2-3.2-3-8.5,0.4-11.5l31.6-27.2c5.5-5.5,5.5-14.3,0-19.8s-14.3-5.5-19.8,0
				l-27.2,31.6c-3,3.5-8.3,3.7-11.5,0.4l-11-11c-3.8-3.8-10-3.8-13.8,0l-14.8,14.8l62.2,62.2l14.8-14.8
				C197,163.7,197,157.5,193.2,153.7z M199.9,98.6c-2.4-2.4-2.4-6.4,0-8.8s6.4-2.4,8.8,0s2.4,6.4,0,8.8S202.3,101,199.9,98.6z"/>
			
				<rect x="83.6" y="143.1" transform="matrix(0.7071 0.7071 -0.7071 0.7071 161.5021 -36.8801)" style="fill:#AA5A03;" width="83.2" height="66.8"/>
			<path style="fill:#547CB4;" d="M193.5,154l-10.4-10.4c-3-3-2.7-8.2,0.7-11.2l31.5-27.3c5.5-5.5,5.7-14.1,0.5-19.3
				c-5.2-5.2-13.8-4.9-19.3,0.5l-27.3,31.5c-3,3.4-8.1,3.8-11.2,0.7l-10.4-10.4c-3.6-3.6-9.6-3.4-13.4,0.4l-14.8,14.8l58.8,58.8
				l14.8-14.8C196.9,163.6,197.1,157.6,193.5,154z M201.5,100.2c-2.3-2.3-2.2-6.2,0.2-8.6s6.3-2.6,8.6-0.2s2.2,6.2-0.2,8.6
				C207.7,102.4,203.8,102.5,201.5,100.2z"/>
			
				<rect x="84.6" y="140.9" transform="matrix(0.7071 0.7071 -0.7071 0.7071 159.2924 -35.9648)" style="fill:#DC9765;" width="77" height="66.8"/>
			
				<polyline style="fill:none;stroke:#2B1986;stroke-width:2.7;stroke-linecap:round;stroke-linejoin:round;stroke-miterlimit:10;" points="
				141.7,218.9 131.1,229.5 68.9,167.3 76.3,159.9 			"/>
			
				<polyline style="fill:none;stroke:#2B1986;stroke-width:2.7;stroke-linecap:round;stroke-linejoin:round;stroke-miterlimit:10;" points="
				81.8,154.4 97.3,138.9 107.4,128.8 116.1,120.1 178.3,182.3 150,210.6 			"/>
			
				<line style="fill:none;stroke:#2B1986;stroke-width:2.7;stroke-linecap:round;stroke-linejoin:round;stroke-miterlimit:10;" x1="101.6" y1="157.6" x2="80.4" y2="178.8"/>
			
				<line style="fill:none;stroke:#2B1986;stroke-width:2.7;stroke-linecap:round;stroke-linejoin:round;stroke-miterlimit:10;" x1="116.3" y1="163.1" x2="90.4" y2="188.9"/>
			
				<line style="fill:none;stroke:#2B1986;stroke-width:2.7;stroke-linecap:round;stroke-linejoin:round;stroke-miterlimit:10;" x1="117.3" y1="189.9" x2="104.4" y2="202.8"/>
			
				<line style="fill:none;stroke:#2B1986;stroke-width:2.7;stroke-linecap:round;stroke-linejoin:round;stroke-miterlimit:10;" x1="133.4" y1="194" x2="114.5" y2="212.9"/>
			<path style="fill:#9CE8F0;" d="M189.6,150.1l-9.6-9.6c-2.8-2.8-2.3-7.8,1.1-10.8l31.3-27.5c5.5-5.5,6-13.8,1.2-18.6
				c-4.8-4.8-13.1-4.2-18.6,1.2l-27.5,31.3c-3,3.4-8,3.9-10.8,1.1l-9.6-9.6c-3.3-3.3-9.1-2.9-12.9,0.9l-14.8,14.8l54.4,54.4
				l14.8-14.8C192.5,159.3,192.9,153.5,189.6,150.1z M199.3,98c-2.1-2.1-1.9-5.8,0.6-8.3c2.4-2.4,6.2-2.7,8.3-0.6s1.9,5.8-0.6,8.3
				C205.2,99.9,201.5,100.2,199.3,98z"/>
			
				<rect x="142.7" y="114.2" transform="matrix(0.7071 -0.7071 0.7071 0.7071 -66.8329 148.3094)" style="fill:#AA5A03;" width="5.8" height="81.4"/>
			<path style="fill:none;stroke:#2B1986;stroke-width:2.7;stroke-linecap:round;stroke-linejoin:round;stroke-miterlimit:10;" d="
				M177.7,103.6l-10.5,12.2c-3,3.5-8.3,3.7-11.5,0.4l-1.8-1.8 M197.3,118.6l16.9-14.6c5.5-5.5,5.5-14.3,0-19.8s-14.3-5.5-19.8,0
				l-8.5,9.9 M120.8,115.3l-4.8,4.8l62.2,62.2l14.8-14.8c3.8-3.8,3.8-10,0-13.8l-11-11c-3.2-3.2-3-8.5,0.4-11.5l5.3-4.6
				 M147.5,108.1l-2.8-2.8c-3.8-3.8-10-3.8-13.8,0l-2.7,2.7 M199.9,98.6c-2.4-2.4-2.4-6.4,0-8.8s6.4-2.4,8.8,0s2.4,6.4,0,8.8
				S202.3,101,199.9,98.6z"/>
			
				<line style="fill:none;stroke:#FFFFFF;stroke-width:4;stroke-linecap:round;stroke-linejoin:round;stroke-miterlimit:10;" x1="131.6" y1="119.8" x2="129.2" y2="122.2"/>
			<path style="fill:none;stroke:#FFFFFF;stroke-width:4;stroke-linecap:round;stroke-linejoin:round;stroke-miterlimit:10;" d="
				M186.4,104l-15.5,18.8c-4.4,5.3-12.5,5.7-17.4,0.8l-9.9-9.9c-1.6-1.6-4.3-1.6-6,0l-1.8,1.8"/>
		</g>
	</g>
	<g>
		<g>
			
				<line style="fill:none;stroke:#2B1986;stroke-width:2;stroke-linecap:round;stroke-miterlimit:10;" x1="43.7" y1="68.5" x2="54.2" y2="79"/>
			
				<line style="fill:none;stroke:#2B1986;stroke-width:2;stroke-linecap:round;stroke-miterlimit:10;" x1="54.2" y1="68.5" x2="43.7" y2="79"/>
		</g>
		<g>
			
				<line style="fill:none;stroke:#2B1986;stroke-width:2;stroke-linecap:round;stroke-miterlimit:10;" x1="257.3" y1="242.3" x2="270.8" y2="255.9"/>
			
				<line style="fill:none;stroke:#2B1986;stroke-width:2;stroke-linecap:round;stroke-miterlimit:10;" x1="270.8" y1="242.3" x2="257.3" y2="255.9"/>
		</g>
		
			<circle style="fill:none;stroke:#2B1986;stroke-width:2;stroke-linecap:round;stroke-miterlimit:10;" cx="243.5" cy="115.5" r="6.4"/>
		
			<circle style="fill:none;stroke:#2B1986;stroke-width:2;stroke-linecap:round;stroke-miterlimit:10;" cx="42.6" cy="239.7" r="6.4"/>
		<g>
			
				<line style="fill:none;stroke:#2B1986;stroke-width:2;stroke-linecap:round;stroke-miterlimit:10;" x1="24" y1="150.8" x2="24" y2="160.2"/>
			
				<line style="fill:none;stroke:#2B1986;stroke-width:2;stroke-linecap:round;stroke-miterlimit:10;" x1="10.6" y1="156.5" x2="17.3" y2="163.2"/>
			
				<line style="fill:none;stroke:#2B1986;stroke-width:2;stroke-linecap:round;stroke-miterlimit:10;" x1="5.2" y1="170.1" x2="14.7" y2="170.1"/>
			
				<line style="fill:none;stroke:#2B1986;stroke-width:2;stroke-linecap:round;stroke-miterlimit:10;" x1="11" y1="183.5" x2="17.7" y2="176.9"/>
			
				<line style="fill:none;stroke:#2B1986;stroke-width:2;stroke-linecap:round;stroke-miterlimit:10;" x1="24.6" y1="188.9" x2="24.6" y2="179.5"/>
			
				<line style="fill:none;stroke:#2B1986;stroke-width:2;stroke-linecap:round;stroke-miterlimit:10;" x1="38" y1="183.1" x2="31.3" y2="176.4"/>
			
				<line style="fill:none;stroke:#2B1986;stroke-width:2;stroke-linecap:round;stroke-miterlimit:10;" x1="43.4" y1="169.6" x2="33.9" y2="169.5"/>
			
				<line style="fill:none;stroke:#2B1986;stroke-width:2;stroke-linecap:round;stroke-miterlimit:10;" x1="37.6" y1="156.2" x2="30.9" y2="162.8"/>
		</g>
		<g>
			
				<line style="fill:none;stroke:#2B1986;stroke-width:2;stroke-linecap:round;stroke-miterlimit:10;" x1="160.1" y1="45.7" x2="160.1" y2="52.7"/>
			
				<line style="fill:none;stroke:#2B1986;stroke-width:2;stroke-linecap:round;stroke-miterlimit:10;" x1="150.1" y1="50" x2="155.1" y2="55"/>
			
				<line style="fill:none;stroke:#2B1986;stroke-width:2;stroke-linecap:round;stroke-miterlimit:10;" x1="146.1" y1="60.1" x2="153.1" y2="60.2"/>
			
				<line style="fill:none;stroke:#2B1986;stroke-width:2;stroke-linecap:round;stroke-miterlimit:10;" x1="150.4" y1="70.1" x2="155.4" y2="65.2"/>
			
				<line style="fill:none;stroke:#2B1986;stroke-width:2;stroke-linecap:round;stroke-miterlimit:10;" x1="160.5" y1="74.2" x2="160.6" y2="67.1"/>
			
				<line style="fill:none;stroke:#2B1986;stroke-width:2;stroke-linecap:round;stroke-miterlimit:10;" x1="170.5" y1="69.8" x2="165.6" y2="64.8"/>
			
				<line style="fill:none;stroke:#2B1986;stroke-width:2;stroke-linecap:round;stroke-miterlimit:10;" x1="174.6" y1="59.7" x2="167.5" y2="59.7"/>
			
				<line style="fill:none;stroke:#2B1986;stroke-width:2;stroke-linecap:round;stroke-miterlimit:10;" x1="170.2" y1="49.7" x2="165.2" y2="54.7"/>
		</g>
	</g>
</g>
</svg>
