<?xml version="1.0" encoding="UTF-8" standalone="no"?>
<svg width="36px" height="60px" viewBox="0 0 36 60" version="1.1" xmlns="http://www.w3.org/2000/svg" xmlns:xlink="http://www.w3.org/1999/xlink" xmlns:sketch="http://www.bohemiancoding.com/sketch/ns">
    <!-- Generator: Sketch 3.4 (15575) - http://www.bohemiancoding.com/sketch -->
    <title>idea</title>
    <desc>Created with Sketch.</desc>
    <defs></defs>
    <g id="Marketing" stroke="none" stroke-width="1" fill="none" fill-rule="evenodd" sketch:type="MSPage">
        <g id="Icon-10" sketch:type="MSArtboardGroup" transform="translate(-12.000000, 0.000000)" fill="#000000">
            <path d="M41.1621,3.7905 C41.2901,3.7905 41.4201,3.7655 41.5451,3.7135 L45.2401,2.1835 C45.7501,1.9725 45.9921,1.3875 45.7811,0.8765 C45.5701,0.3665 44.9821,0.1255 44.4751,0.3355 L40.7791,1.8665 C40.2691,2.0775 40.0271,2.6625 40.2381,3.1725 C40.3971,3.5575 40.7701,3.7905 41.1621,3.7905 L41.1621,3.7905 Z M41.5461,12.2865 C41.0371,12.0765 40.4501,12.3165 40.2391,12.8275 C40.0281,13.3375 40.2701,13.9225 40.7801,14.1335 L44.4751,15.6645 C44.6001,15.7155 44.7301,15.7405 44.8581,15.7405 C45.2501,15.7405 45.6231,15.5075 45.7821,15.1235 C45.9931,14.6125 45.7511,14.0275 45.2411,13.8165 L41.5461,12.2865 Z M41.0001,7.9995 C41.0001,8.5525 41.4471,8.9995 42.0001,8.9995 L46.0001,8.9995 C46.5531,8.9995 47.0001,8.5525 47.0001,7.9995 C47.0001,7.4475 46.5531,6.9995 46.0001,6.9995 L42.0001,6.9995 C41.4471,6.9995 41.0001,7.4475 41.0001,7.9995 L41.0001,7.9995 Z M18.4551,12.2865 L14.7601,13.8165 C14.2501,14.0275 14.0081,14.6125 14.2191,15.1235 C14.3781,15.5075 14.7511,15.7405 15.1421,15.7405 C15.2701,15.7405 15.4001,15.7155 15.5251,15.6645 L19.2211,14.1335 C19.7301,13.9225 19.9731,13.3375 19.7621,12.8275 C19.5511,12.3165 18.9641,12.0775 18.4551,12.2865 L18.4551,12.2865 Z M14.7591,2.1835 L18.4541,3.7135 C18.5791,3.7655 18.7091,3.7905 18.8371,3.7905 C19.2281,3.7905 19.6011,3.5575 19.7611,3.1725 C19.9721,2.6625 19.7291,2.0775 19.2201,1.8665 L15.5241,0.3355 C15.0171,0.1255 14.4291,0.3665 14.2181,0.8765 C14.0071,1.3875 14.2491,1.9725 14.7591,2.1835 L14.7591,2.1835 Z M14.0001,8.9995 L18.0001,8.9995 C18.5531,8.9995 19.0001,8.5525 19.0001,7.9995 C19.0001,7.4475 18.5531,6.9995 18.0001,6.9995 L14.0001,6.9995 C13.4471,6.9995 13.0001,7.4475 13.0001,7.9995 C13.0001,8.5525 13.4471,8.9995 14.0001,8.9995 L14.0001,8.9995 Z M28.0001,19.9995 C27.4471,19.9995 27.0001,20.4475 27.0001,20.9995 C27.0001,21.5525 27.4471,21.9995 28.0001,21.9995 L32.0001,21.9995 C32.5531,21.9995 33.0001,21.5525 33.0001,20.9995 C33.0001,20.4475 32.5531,19.9995 32.0001,19.9995 L28.0001,19.9995 Z M24.0001,7.9995 C24.0001,9.7155 24.9111,11.4965 26.7071,13.2925 C26.8161,13.4025 26.8991,13.5365 26.9481,13.6835 L27.7211,15.9995 L29.0001,15.9995 L29.0001,8.9995 C29.0001,8.4475 29.4471,7.9995 30.0001,7.9995 C30.5531,7.9995 31.0001,8.4475 31.0001,8.9995 L31.0001,15.9995 L32.2791,15.9995 L33.0521,13.6835 C33.1001,13.5365 33.1831,13.4025 33.2931,13.2925 C35.0891,11.4965 36.0001,9.7155 36.0001,7.9995 C36.0001,4.6915 33.3081,1.9995 30.0001,1.9995 C26.6911,1.9995 24.0001,4.6915 24.0001,7.9995 L24.0001,7.9995 Z M25.1251,14.5365 C23.0511,12.4045 22.0001,10.2065 22.0001,7.9995 C22.0001,3.5885 25.5891,-0.0005 30.0001,-0.0005 C34.4111,-0.0005 38.0001,3.5885 38.0001,7.9995 C38.0001,10.2065 36.9491,12.4045 34.8751,14.5365 L33.9481,17.3165 C33.8121,17.7245 33.4311,17.9995 33.0001,17.9995 L27.0001,17.9995 C26.5691,17.9995 26.1871,17.7245 26.0521,17.3165 L25.1251,14.5365 Z M30.0001,51.9995 C32.3471,51.9995 33.5751,50.8395 33.7071,50.7075 C34.0931,50.3215 34.0921,49.7035 33.7131,49.3115 C33.3321,48.9185 32.7041,48.9085 32.3051,49.2815 C32.2731,49.3115 31.5181,49.9995 30.0001,49.9995 C28.5031,49.9995 27.7491,49.3305 27.6971,49.2835 C27.3081,48.9025 26.6811,48.9055 26.2931,49.2925 C25.9021,49.6835 25.9021,50.3165 26.2931,50.7075 C26.4251,50.8395 27.6531,51.9995 30.0001,51.9995 L30.0001,51.9995 Z M46.0001,34.1715 L46.0001,28.9995 C46.0001,28.8965 45.8991,18.6555 37.1631,17.1745 C36.6191,17.0785 36.1021,17.4485 36.0101,17.9935 C35.9181,18.5385 36.2841,19.0545 36.8291,19.1465 C43.8911,20.3435 43.9991,28.6485 44.0001,28.9995 L44.0001,34.9995 C44.0001,35.5525 44.4471,35.9995 45.0001,35.9995 C45.5521,35.9995 46.0001,36.4485 46.0001,36.9995 L46.0001,40.9995 C46.0001,41.5515 45.5521,41.9995 45.0001,41.9995 C44.5831,41.9995 44.2101,42.2585 44.0631,42.6485 C44.0341,42.7285 41.0811,50.5755 39.1681,53.4455 L39.0041,53.6925 C37.8061,55.5105 36.1641,57.9995 30.0001,57.9995 C23.8361,57.9995 22.1941,55.5105 20.9961,53.6925 L20.8321,53.4455 C18.9191,50.5755 15.9661,42.7285 15.9361,42.6485 C15.7901,42.2585 15.4171,41.9995 15.0001,41.9995 C14.4481,41.9995 14.0001,41.5515 14.0001,40.9995 L14.0001,36.9995 C14.0001,36.7285 14.1081,36.4825 14.2841,36.3025 C14.6821,37.1955 15.5261,37.9995 17.0001,37.9995 C17.3791,37.9995 17.7251,37.7865 17.8941,37.4475 C18.8101,35.6155 19.7121,32.2525 19.9431,29.9905 C23.0951,29.9345 32.2141,29.5495 36.2711,27.0175 C37.1911,30.5695 40.1441,33.5595 40.2931,33.7075 C40.6831,34.0975 41.3161,34.0975 41.7071,33.7075 C42.0981,33.3165 42.0981,32.6835 41.7071,32.2925 C41.6701,32.2555 38.0001,28.5445 38.0001,24.9995 C38.0001,24.5505 37.7001,24.1565 37.2661,24.0365 C36.8371,23.9155 36.3741,24.0995 36.1421,24.4855 C34.6871,26.9095 25.2421,27.9995 19.0001,27.9995 C18.4471,27.9995 18.0001,28.4475 18.0001,28.9995 C18.0001,30.6235 17.2321,33.8645 16.4171,35.8605 C16.0981,35.6675 16.0081,35.3105 16.0001,34.9995 C16.0001,34.4475 15.5531,33.9995 15.0001,33.9995 C13.3461,33.9995 12.0001,35.3455 12.0001,36.9995 L12.0001,40.9995 C12.0001,42.4045 12.9711,43.5875 14.2771,43.9125 C15.0071,45.8095 17.4181,51.9295 19.1681,54.5545 L19.3261,54.7935 C20.6101,56.7415 22.7591,59.9995 30.0001,59.9995 C37.2411,59.9995 39.3901,56.7415 40.6741,54.7935 L40.8321,54.5545 C42.5821,51.9295 44.9931,45.8095 45.7231,43.9125 C47.0291,43.5875 48.0001,42.4045 48.0001,40.9995 L48.0001,36.9995 C48.0001,35.6965 47.1641,34.5835 46.0001,34.1715 L46.0001,34.1715 Z M13.0001,31.9995 C13.5531,31.9995 14.0001,31.5525 14.0001,30.9995 C14.0001,30.9015 14.0961,21.1365 22.4051,17.4425 C22.9101,17.2185 23.1371,16.6275 22.9131,16.1235 C22.6881,15.6185 22.0991,15.3895 21.5931,15.6155 C12.1091,19.8315 12.0001,30.5455 12.0001,30.9995 C12.0001,31.5525 12.4471,31.9995 13.0001,31.9995 L13.0001,31.9995 Z M35.0001,40.9995 C35.5531,40.9995 36.0001,40.5525 36.0001,39.9995 L37.0001,39.9995 C37.5531,39.9995 38.0001,39.5525 38.0001,38.9995 C38.0001,38.4475 37.5531,37.9995 37.0001,37.9995 L33.0001,37.9995 C32.4471,37.9995 32.0001,38.4475 32.0001,38.9995 C32.0001,39.5525 32.4471,39.9995 33.0001,39.9995 L34.0001,39.9995 C34.0001,40.5525 34.4471,40.9995 35.0001,40.9995 L35.0001,40.9995 Z M27.0001,39.9995 L26.0001,39.9995 C26.0001,40.5525 25.5531,40.9995 25.0001,40.9995 C24.4471,40.9995 24.0001,40.5525 24.0001,39.9995 L23.0001,39.9995 C22.4471,39.9995 22.0001,39.5525 22.0001,38.9995 C22.0001,38.4475 22.4471,37.9995 23.0001,37.9995 L27.0001,37.9995 C27.5531,37.9995 28.0001,38.4475 28.0001,38.9995 C28.0001,39.5525 27.5531,39.9995 27.0001,39.9995 L27.0001,39.9995 Z" id="idea" sketch:type="MSShapeGroup"></path>
        </g>
    </g>
</svg>