<?xml version="1.0" encoding="iso-8859-1"?>
<!-- Generator: Adobe Illustrator 19.0.0, SVG Export Plug-In . SVG Version: 6.00 Build 0)  -->
<svg version="1.1" id="Capa_1" xmlns="http://www.w3.org/2000/svg" xmlns:xlink="http://www.w3.org/1999/xlink" x="0px" y="0px"
	 viewBox="0 0 512 512" style="enable-background:new 0 0 512 512;" xml:space="preserve">
<path style="fill:#FFDB92;" d="M444.484,0c-37.288,0-67.517,30.228-67.517,67.516l-22.505,425.664
	c19.212-6.439,56.264-29.115,56.264-48.697V156.727l33.758-89.211l33.758,75.292L512,157.538V67.516C512,30.224,481.775,0,444.484,0
	z"/>
<path style="fill:#FFEBC2;" d="M444.484,0H168.791c-37.288,0-67.516,30.228-67.516,67.516v410.725l219.429,11.253
	c17.706,0,38.892-1.745,56.264-7.566V67.516C376.967,30.228,407.195,0,444.484,0z"/>
<g>
	<path style="fill:#992A2A;" d="M343.209,75.956h-70.33c-4.661,0-8.44-3.778-8.44-8.44s3.779-8.44,8.44-8.44h70.33
		c4.661,0,8.44,3.778,8.44,8.44S347.87,75.956,343.209,75.956z"/>
	<path style="fill:#992A2A;" d="M239.121,75.956h-70.33c-4.661,0-8.44-3.778-8.44-8.44s3.779-8.44,8.44-8.44h70.33
		c4.661,0,8.44,3.778,8.44,8.44S243.782,75.956,239.121,75.956z"/>
	<path style="fill:#992A2A;" d="M343.209,120.967h-70.33c-4.661,0-8.44-3.778-8.44-8.44c0-4.662,3.779-8.44,8.44-8.44h70.33
		c4.661,0,8.44,3.778,8.44,8.44C351.648,117.189,347.87,120.967,343.209,120.967z"/>
	<path style="fill:#992A2A;" d="M239.121,120.967h-70.33c-4.661,0-8.44-3.778-8.44-8.44c0-4.662,3.779-8.44,8.44-8.44h70.33
		c4.661,0,8.44,3.778,8.44,8.44C247.56,117.189,243.782,120.967,239.121,120.967z"/>
	<path style="fill:#992A2A;" d="M343.209,165.978h-70.33c-4.661,0-8.44-3.778-8.44-8.44s3.779-8.44,8.44-8.44h70.33
		c4.661,0,8.44,3.778,8.44,8.44S347.87,165.978,343.209,165.978z"/>
	<path style="fill:#992A2A;" d="M239.121,165.978h-70.33c-4.661,0-8.44-3.778-8.44-8.44s3.779-8.44,8.44-8.44h70.33
		c4.661,0,8.44,3.778,8.44,8.44S243.782,165.978,239.121,165.978z"/>
	<path style="fill:#992A2A;" d="M343.209,210.989h-70.33c-4.661,0-8.44-3.778-8.44-8.44c0-4.662,3.779-8.44,8.44-8.44h70.33
		c4.661,0,8.44,3.778,8.44,8.44C351.648,207.211,347.87,210.989,343.209,210.989z"/>
	<path style="fill:#992A2A;" d="M239.121,210.989h-70.33c-4.661,0-8.44-3.778-8.44-8.44c0-4.662,3.779-8.44,8.44-8.44h70.33
		c4.661,0,8.44,3.778,8.44,8.44C247.56,207.211,243.782,210.989,239.121,210.989z"/>
	<path style="fill:#992A2A;" d="M343.209,256h-70.33c-4.661,0-8.44-3.778-8.44-8.44s3.779-8.44,8.44-8.44h70.33
		c4.661,0,8.44,3.778,8.44,8.44S347.87,256,343.209,256z"/>
	<path style="fill:#992A2A;" d="M239.121,256h-70.33c-4.661,0-8.44-3.778-8.44-8.44s3.779-8.44,8.44-8.44h70.33
		c4.661,0,8.44,3.778,8.44,8.44S243.782,256,239.121,256z"/>
	<path style="fill:#992A2A;" d="M343.209,419.165h-45.011v16.879h45.011c4.661,0,8.44-3.778,8.44-8.44
		C351.648,422.942,347.87,419.165,343.209,419.165z"/>
	<path style="fill:#992A2A;" d="M343.209,374.154H307.2v16.879h36.009c4.661,0,8.44-3.778,8.44-8.44S347.87,374.154,343.209,374.154
		z"/>
	<path style="fill:#992A2A;" d="M343.209,346.022h-70.33c-4.661,0-8.44-3.778-8.44-8.44s3.779-8.44,8.44-8.44h70.33
		c4.661,0,8.44,3.778,8.44,8.44S347.87,346.022,343.209,346.022z"/>
	<path style="fill:#992A2A;" d="M239.121,346.022h-70.33c-4.661,0-8.44-3.778-8.44-8.44s3.779-8.44,8.44-8.44h70.33
		c4.661,0,8.44,3.778,8.44,8.44S243.782,346.022,239.121,346.022z"/>
	<path style="fill:#992A2A;" d="M343.209,301.011h-70.33c-4.661,0-8.44-3.778-8.44-8.44s3.779-8.44,8.44-8.44h70.33
		c4.661,0,8.44,3.778,8.44,8.44S347.87,301.011,343.209,301.011z"/>
	<path style="fill:#992A2A;" d="M239.121,301.011h-70.33c-4.661,0-8.44-3.778-8.44-8.44s3.779-8.44,8.44-8.44h70.33
		c4.661,0,8.44,3.778,8.44,8.44S243.782,301.011,239.121,301.011z"/>
</g>
<path style="fill:#FFDB92;" d="M51.58,393.846l51.58-22.505l51.572,22.505l51.575-22.505l51.572,22.505l51.57-22.505v73.143
	c0,18.644,15.114,33.758,33.758,33.758c18.646,0,33.758-15.112,33.758-33.758h33.758c0,37.288-30.228,67.516-67.516,67.516H67.516
	C30.228,512,0,481.772,0,444.484v-73.143L51.58,393.846z"/>
<path style="fill:#FFCB61;" d="M410.725,67.516v89.212l49.703-21.695l17.813,7.776c0-40.544,0-70.15,0-75.292
	c0-18.646-15.112-33.758-33.758-33.758C425.838,33.758,410.725,48.871,410.725,67.516z"/>
<g>
</g>
<g>
</g>
<g>
</g>
<g>
</g>
<g>
</g>
<g>
</g>
<g>
</g>
<g>
</g>
<g>
</g>
<g>
</g>
<g>
</g>
<g>
</g>
<g>
</g>
<g>
</g>
<g>
</g>
</svg>
