<?xml version="1.0" encoding="UTF-8" standalone="no"?>
<svg width="60px" height="60px" viewBox="0 0 60 60" version="1.1" xmlns="http://www.w3.org/2000/svg" xmlns:xlink="http://www.w3.org/1999/xlink" xmlns:sketch="http://www.bohemiancoding.com/sketch/ns">
    <!-- Generator: Sketch 3.4 (15575) - http://www.bohemiancoding.com/sketch -->
    <title>magnifying-glass</title>
    <desc>Created with Sketch.</desc>
    <defs></defs>
    <g id="Interface" stroke="none" stroke-width="1" fill="none" fill-rule="evenodd" sketch:type="MSPage">
        <g id="Icon-10" sketch:type="MSArtboardGroup" fill="#000000">
            <path d="M33.707,22.2954 C34.098,22.6864 34.098,23.3184 33.707,23.7094 C33.512,23.9044 33.256,24.0024 33,24.0024 C32.744,24.0024 32.488,23.9044 32.293,23.7094 L24.293,15.7094 C23.902,15.3184 23.902,14.6864 24.293,14.2954 C24.684,13.9044 25.316,13.9044 25.707,14.2954 L33.707,22.2954 Z M35.707,16.2954 C36.098,16.6864 36.098,17.3184 35.707,17.7094 C35.512,17.9044 35.256,18.0024 35,18.0024 C34.744,18.0024 34.488,17.9044 34.293,17.7094 L30.293,13.7094 C29.902,13.3184 29.902,12.6864 30.293,12.2954 C30.684,11.9044 31.316,11.9044 31.707,12.2954 L35.707,16.2954 Z M60,55.0034 C60,56.3384 59.479,57.5934 58.535,58.5384 C57.561,59.5124 56.279,60.0004 54.999,60.0004 C53.719,60.0004 52.439,59.5134 51.465,58.5384 L39.615,46.6894 C39.225,46.2984 39.225,45.6654 39.615,45.2744 C40.006,44.8844 40.639,44.8844 41.029,45.2744 L52.879,57.1244 C54.05,58.2944 55.952,58.2924 57.121,57.1234 C57.687,56.5574 58,55.8034 58,55.0034 C58,54.2014 57.687,53.4484 57.121,52.8814 L50.822,46.5834 L48.709,48.7074 C48.32,49.1004 47.687,49.1014 47.295,48.7114 C46.903,48.3214 46.901,47.6894 47.291,47.2974 L50.111,44.4624 C50.299,44.2734 50.554,44.1674 50.819,44.1674 L50.82,44.1674 C51.086,44.1674 51.34,44.2724 51.527,44.4604 L58.535,51.4674 C59.479,52.4114 60,53.6674 60,55.0034 L60,55.0034 Z M24,42.0024 C14.075,42.0024 6,33.9274 6,24.0024 C6,14.0774 14.075,6.0024 24,6.0024 C33.925,6.0024 42,14.0774 42,24.0024 C42,33.9274 33.925,42.0024 24,42.0024 L24,42.0024 Z M24,4.0024 C12.972,4.0024 4,12.9744 4,24.0024 C4,35.0304 12.972,44.0024 24,44.0024 C35.028,44.0024 44,35.0304 44,24.0024 C44,12.9744 35.028,4.0024 24,4.0024 L24,4.0024 Z M24,46.0024 C11.869,46.0024 2,36.1334 2,24.0024 C2,11.8714 11.869,2.0024 24,2.0024 C36.131,2.0024 46,11.8714 46,24.0024 C46,36.1334 36.131,46.0024 24,46.0024 L24,46.0024 Z M42.947,38.7074 L47.393,43.1534 C47.588,43.3494 47.844,43.4464 48.1,43.4464 C48.355,43.4464 48.611,43.3494 48.807,43.1534 C49.197,42.7634 49.197,42.1304 48.807,41.7394 L44.124,37.0564 C46.571,33.2954 48,28.8144 48,24.0024 C48,10.7694 37.233,0.0024 24,0.0024 C10.767,0.0024 0,10.7694 0,24.0024 C0,37.2354 10.767,48.0024 24,48.0024 C31.695,48.0024 38.552,44.3574 42.947,38.7074 L42.947,38.7074 Z" id="magnifying-glass" sketch:type="MSShapeGroup"></path>
        </g>
    </g>
</svg>