<?xml version="1.0" encoding="UTF-8" standalone="no"?>
<svg width="60px" height="60px" viewBox="0 0 60 60" version="1.1" xmlns="http://www.w3.org/2000/svg" xmlns:xlink="http://www.w3.org/1999/xlink" xmlns:sketch="http://www.bohemiancoding.com/sketch/ns">
    <!-- Generator: Sketch 3.4 (15575) - http://www.bohemiancoding.com/sketch -->
    <title>nipple</title>
    <desc>Created with Sketch.</desc>
    <defs></defs>
    <g id="Family" stroke="none" stroke-width="1" fill="none" fill-rule="evenodd" sketch:type="MSPage">
        <g id="Icon-14" sketch:type="MSArtboardGroup" fill="#000000">
            <path d="M14.3945,26.0601 C14.6345,26.5581 14.4255,27.1551 13.9285,27.3951 C9.1125,29.7161 5.9995,34.6641 5.9995,40.0001 C5.9995,47.7201 12.2805,54.0001 19.9995,54.0001 C25.3365,54.0001 30.2845,50.8881 32.6035,46.0711 C32.8435,45.5741 33.4425,45.3651 33.9385,45.6041 C34.4365,45.8441 34.6455,46.4421 34.4065,46.9391 C31.7545,52.4431 26.1005,56.0001 19.9995,56.0001 C11.1775,56.0001 3.9995,48.8221 3.9995,40.0001 C3.9995,33.9011 7.5565,28.2461 13.0595,25.5931 C13.5615,25.3531 14.1555,25.5631 14.3945,26.0601 M53.1225,19.1491 C52.8955,19.1491 52.6665,19.0721 52.4795,18.9141 C52.0565,18.5591 52.0015,17.9281 52.3585,17.5051 C53.4165,16.2471 53.9995,14.6471 53.9995,13.0001 C53.9995,12.4481 54.4475,12.0001 54.9995,12.0001 C55.5525,12.0001 55.9995,12.4481 55.9995,13.0001 C55.9995,15.1181 55.2495,17.1751 53.8875,18.7931 C53.6905,19.0281 53.4075,19.1491 53.1225,19.1491 M48.7505,47.0001 C48.7505,47.5231 48.5795,48.0061 48.2925,48.2931 L46.2925,50.2931 C46.0065,50.5791 45.5235,50.7501 44.9995,50.7501 C44.4765,50.7501 43.9945,50.5801 43.7075,50.2931 L9.7065,16.2921 C9.0785,15.6641 9.0795,14.3351 9.7075,13.7071 L11.7065,11.7071 C11.9935,11.4211 12.4765,11.2501 12.9995,11.2501 C13.5235,11.2501 14.0055,11.4201 14.2915,11.7061 L48.2935,45.7081 C48.5805,45.9941 48.7505,46.4771 48.7505,47.0001 M19.9995,58.0001 C10.0755,58.0001 1.9995,49.9251 1.9995,40.0001 C1.9995,32.4541 6.6865,25.7551 13.7245,23.1401 L36.8605,46.2741 C34.2465,53.3131 27.5465,58.0001 19.9995,58.0001 M39.2005,29.4001 C38.8695,29.8411 38.9575,30.4671 39.3995,30.7991 C39.5795,30.9341 39.7905,30.9991 39.9985,30.9991 C40.3025,30.9991 40.6025,30.8621 40.7985,30.6011 C40.8275,30.5631 43.6455,26.8701 47.2425,25.9701 C55.3505,23.9431 59.9995,19.2151 59.9995,13.0001 C59.9995,9.4271 58.5495,6.1861 56.2085,3.8341 C56.2015,3.8271 56.1995,3.8161 56.1915,3.8091 C56.1835,3.8011 56.1735,3.7991 56.1655,3.7911 C53.8135,1.4501 50.5735,0.0001 46.9995,0.0001 C40.7845,0.0001 36.0565,4.6501 34.0305,12.7571 C33.3525,15.4651 29.2455,19.6261 27.0405,21.6271 L15.7065,10.2921 C15.0435,9.6301 14.0575,9.2501 12.9995,9.2501 C11.9425,9.2501 10.9565,9.6301 10.2925,10.2931 L8.2925,12.2931 C6.8755,13.7091 6.8755,16.2891 8.2915,17.7061 L12.1855,21.6001 C4.8355,24.7141 -0.0005,31.9201 -0.0005,40.0001 C-0.0005,51.0281 8.9715,60.0001 19.9995,60.0001 C28.0815,60.0001 35.2875,55.1641 38.3995,47.8131 L42.2935,51.7071 C42.9565,52.3701 43.9425,52.7501 44.9995,52.7501 C46.0575,52.7501 47.0435,52.3701 47.7075,51.7071 L49.7075,49.7071 C50.3705,49.0441 50.7495,48.0581 50.7505,47.0011 C50.7505,45.9431 50.3715,44.9561 49.7075,44.2931 L28.4565,23.0421 C30.3785,21.2861 35.1075,16.6931 35.9695,13.2431 C37.0195,9.0441 39.8485,2.0001 46.9995,2.0001 C49.6735,2.0001 52.1245,2.9601 54.0345,4.5521 L53.2925,5.2931 C52.9025,5.6841 52.9025,6.3161 53.2925,6.7071 C53.4885,6.9021 53.7445,7.0001 53.9995,7.0001 C54.2555,7.0001 54.5115,6.9021 54.7075,6.7071 L55.4485,5.9661 C57.0395,7.8741 57.9995,10.3271 57.9995,13.0001 C57.9995,20.1511 50.9565,22.9801 46.7575,24.0301 C42.4625,25.1031 39.3315,29.2251 39.2005,29.4001" id="nipple" sketch:type="MSShapeGroup"></path>
        </g>
    </g>
</svg>