<?xml version="1.0" encoding="utf-8"?>
<!-- Generator: Adobe Illustrator 21.1.0, SVG Export Plug-In . SVG Version: 6.00 Build 0)  -->
<svg version="1.1" id="Warstwa_1" xmlns="http://www.w3.org/2000/svg" xmlns:xlink="http://www.w3.org/1999/xlink" x="0px" y="0px"
	 viewBox="0 0 300 300" style="enable-background:new 0 0 300 300;" xml:space="preserve">
<path style="fill:#67DEA3;" d="M190.2,176.9L190.2,176.9c0-4.8,3.9-8.6,8.6-8.6h87.6c4.8,0,8.6-3.9,8.6-8.6v0c0-4.8-3.9-8.6-8.6-8.6
	h-46.8c-4.8,0-8.6-3.9-8.6-8.6v0c0-4.8,3.9-8.6,8.6-8.6h11.7c4.8,0,8.6-3.9,8.6-8.6v0c0-4.8-3.9-8.6-8.6-8.6h-95.8
	c-4.8,0-8.6-3.9-8.6-8.6v0c0-4.8,3.9-8.6,8.6-8.6h16.2c4.8,0,8.6-3.9,8.6-8.6v0c0-4.8-3.9-8.6-8.6-8.6h-119c-4.8,0-8.6,3.9-8.6,8.6
	v0c0,4.8,3.9,8.6,8.6,8.6h46.1c4.8,0,8.6,3.9,8.6,8.6v0c0,4.8-3.9,8.6-8.6,8.6H23.4c-4.8,0-8.6,3.9-8.6,8.6v0c0,4.8,3.9,8.6,8.6,8.6
	h62.8c4.8,0,8.6,3.9,8.6,8.6v0c0,4.8-3.9,8.6-8.6,8.6H46.8c-4.8,0-8.6,3.9-8.6,8.6v0c0,4.8,3.9,8.6,8.6,8.6h17.4
	c4.8,0,8.6,3.9,8.6,8.6v0c0,4.8-3.9,8.6-8.6,8.6H52.9c-4.8,0-8.6,3.9-8.6,8.6v0c0,4.8,3.9,8.6,8.6,8.6H105c4.8,0,8.6,3.9,8.6,8.6v0
	c0,4.8-3.9,8.6-8.6,8.6H71c-4.8,0-8.6,3.9-8.6,8.6v0c0,4.8,3.9,8.6,8.6,8.6h119c4.8,0,8.6-3.9,8.6-8.6v0c0-4.8-3.9-8.6-8.6-8.6
	h-28.3c-4.8,0-8.6-3.9-8.6-8.6v0c0-4.8,3.9-8.6,8.6-8.6H207c4.8,0,8.6-3.9,8.6-8.6v0c0-4.8-3.9-8.6-8.6-8.6h-8.2
	C194.1,185.5,190.2,181.7,190.2,176.9z M120.9,168.3h21.3c4.8,0,8.6,3.9,8.6,8.6v0c0,4.8-3.9,8.6-8.6,8.6h-21.3
	c-4.8,0-8.6-3.9-8.6-8.6v0C112.3,172.1,116.1,168.3,120.9,168.3z M24.2,151.1H10.6c-4.8,0-8.6,3.9-8.6,8.6v0c0,4.8,3.9,8.6,8.6,8.6
	h13.6c4.8,0,8.6-3.9,8.6-8.6v0C32.8,154.9,28.9,151.1,24.2,151.1z"/>
<g>
	<g>
		<path style="fill:#FF7700;" d="M265.5,99.5h-6.4c-1-4.3-2.7-8.3-4.9-11.8l4.5-4.5c1.9-1.9,1.9-5,0-6.9l-5.4-5.4
			c-1.9-1.9-5-1.9-6.9,0l-4.5,4.5c-3.6-2.3-7.6-3.9-11.8-4.9V64c0-2.7-2.2-4.9-4.9-4.9h-7.6c-2.7,0-4.9,2.2-4.9,4.9v6.4
			c-4.3,1-8.3,2.7-11.8,4.9l-4.5-4.5c-1.9-1.9-5-1.9-6.9,0l-5.4,5.4c-1.9,1.9-1.9,5,0,6.9l4.5,4.5c-2.3,3.6-3.9,7.6-4.9,11.8h-6.4
			c-2.7,0-4.9,2.2-4.9,4.9v7.6c0,2.7,2.2,4.9,4.9,4.9h6.4c1,4.3,2.7,8.3,4.9,11.8l-4.5,4.5c-1.9,1.9-1.9,5,0,6.9l5.4,5.4
			c1.9,1.9,5,1.9,6.9,0l4.5-4.5c3.6,2.3,7.6,3.9,11.8,4.9v6.4c0,2.7,2.2,4.9,4.9,4.9h7.6c2.7,0,4.9-2.2,4.9-4.9v-6.4
			c4.3-1,8.3-2.7,11.8-4.9l4.5,4.5c1.9,1.9,5,1.9,6.9,0l5.4-5.4c1.9-1.9,1.9-5,0-6.9l-4.5-4.5c2.3-3.6,3.9-7.6,4.9-11.8h6.4
			c2.7,0,4.9-2.2,4.9-4.9v-7.6C270.4,101.7,268.2,99.5,265.5,99.5z M222.2,126.1c-9.9,0-17.9-8-17.9-17.9s8-17.9,17.9-17.9
			c9.9,0,17.9,8,17.9,17.9S232.1,126.1,222.2,126.1z"/>
		<path style="fill:#FFFFFF;" d="M228.8,124.8c-2,0.8-4.3,1.3-6.6,1.3c-9.9,0-17.9-8-17.9-17.9s8-17.9,17.9-17.9
			c2.3,0,4.6,0.4,6.6,1.3l1-29c-0.6-1.9-2.5-3.4-4.6-3.4h-7.6c-2.7,0-4.9,2.2-4.9,4.9v6.4c-4.3,1-8.3,2.7-11.8,4.9l-4.5-4.5
			c-1.9-1.9-5-1.9-6.9,0l-5.4,5.4c-1.9,1.9-1.9,5,0,6.9l4.5,4.5c-2.3,3.6-3.9,7.6-4.9,11.8h-6.4c-2.7,0-4.9,2.2-4.9,4.9v7.6
			c0,2.7,2.2,4.9,4.9,4.9h6.4c1,4.3,2.7,8.3,4.9,11.8l-4.5,4.5c-1.9,1.9-1.9,5,0,6.9l5.4,5.4c1.9,1.9,5,1.9,6.9,0l4.5-4.5
			c3.6,2.3,7.6,3.9,11.8,4.9v6.4c0,2.7,2.2,4.9,4.9,4.9h7.6c2.2,0,4-1.4,4.6-3.4L228.8,124.8z"/>
		<path style="fill:#FAD336;" d="M260.6,99.5h-5.7c-0.9-4.3-2.4-8.3-4.4-11.8l4-4.5c1.7-1.9,1.7-5,0-6.9l-4.8-5.4
			c-1.7-1.9-2.9-1.2-4.6,0.8l-4,4.5c-3.2-2.3-8.2-4.7-12-5.7V64c0-2.7-1.9-4.9-4.4-4.9H218c-2.4,0-4.3,2.2-4.3,4.9v6.4
			c-3.8,1-8.1,3.4-11.3,5.7l-4-4.5c-1.7-1.9-3.7-2.7-5.4-0.8l-4.8,5.4c-1.7,1.9-1.7,5,0,6.9l4,4.5c-2,3.6-3.5,7.6-4.4,11.8h-5.7
			c-2.4,0-4.4,2.2-4.4,4.9v7.6c0,2.7,1.9,4.9,4.4,4.9h5.7c0.9,4.3,2.4,8.3,4.4,11.8l-4,4.5c-1.7,1.9-1.7,5,0,6.9l4.8,5.4
			c1.7,1.9,2.9,1.9,4.6,0l4-4.5c3.2,2.3,8.2,3.9,12,4.9v6.4c0,2.7,1.9,4.9,4.3,4.9h6.7c2.4,0,4.4-2.2,4.4-4.9v-6.4
			c3.8-1,9.6-3.4,12.8-5.7l4,4.5c1.7,1.9,2.2,2.7,3.9,0.8l4.8-5.4c1.7-1.9,1.7-5,0-6.9l-4-4.5c2-3.6,3.5-7.6,4.4-11.8h5.7
			c2.4,0,4.4-2.2,4.4-4.9v-7.6C264.9,101.7,263,99.5,260.6,99.5z M222.2,126.1c-8.8,0-17.6-8-17.6-17.9s8.8-17.9,17.6-17.9
			c8.8,0,17.6,8,17.6,17.9S231,126.1,222.2,126.1z"/>
		<path style="fill:none;stroke:#2B1986;stroke-width:2.7;stroke-linecap:round;stroke-linejoin:round;stroke-miterlimit:10;" d="
			M270.4,105.1v-0.7c0-2.7-2.2-4.9-4.9-4.9h-6.4c-1-4.3-2.7-8.3-4.9-11.8l4.5-4.5c1.9-1.9,1.9-5,0-6.9l-5.4-5.4
			c-1.9-1.9-5-1.9-6.9,0l-4.5,4.5c-3.6-2.3-7.6-3.9-11.8-4.9V64c0-2.7-2.2-4.9-4.9-4.9h-7.6c-2.7,0-4.9,2.2-4.9,4.9v6.4
			c-4.3,1-8.3,2.7-11.8,4.9l-4.5-4.5c-1.9-1.9-5-1.9-6.9,0l-2.5,2.5 M257.8,141.1l1-1c1.9-1.9,1.9-5,0-6.9l-4.5-4.5
			c2.3-3.6,3.9-7.6,4.9-11.8h6.4c2.7,0,4.9-2.2,4.9-4.9v-2.1 M209.7,145.1c1,0.3,2,0.6,3,0.8v6.4c0,2.7,2.2,4.9,4.9,4.9h7.6
			c2.7,0,4.9-2.2,4.9-4.9v-6.4c4.3-1,8.3-2.7,11.8-4.9l4.5,4.5c1.9,1.9,5,1.9,6.9,0l2.2-2.2 M187.5,143.7l1.8,1.8
			c1.9,1.9,5,1.9,6.9,0l4.5-4.5c1.6,1,3.2,1.9,5,2.6 M185.3,141.4l2.3,2.3 M188,127.8c0.2,0.3,0.3,0.6,0.5,0.8l-4.5,4.5
			c-1.9,1.9-1.9,5,0,6.9l1.2,1.2 M172.3,110v2c0,2.7,2.2,4.9,4.9,4.9h6.4c0.5,2.3,1.3,4.5,2.2,6.7 M184.8,95.5
			c-0.4,1.3-0.8,2.6-1.1,3.9h-6.4c-2.7,0-4.9,2.2-4.9,4.9v1.5 M184,76.1c-1.9,1.9-1.9,5,0,6.9l4.5,4.5c-0.8,1.3-1.6,2.7-2.3,4.2
			 M222.2,126.1c-9.9,0-17.9-8-17.9-17.9s8-17.9,17.9-17.9c9.9,0,17.9,8,17.9,17.9S232.1,126.1,222.2,126.1z"/>
		<path style="fill:none;stroke:#FFFFFF;stroke-width:2.7;stroke-linecap:round;stroke-linejoin:round;stroke-miterlimit:10;" d="
			M219.3,63.6h1.5 M211,75.6c0.9-0.3,1.8-0.5,2.7-0.8l3.5-0.8v-8.1 M190.4,76.2l2.2-2.2c0,0,0.1-0.1,0.3-0.1s0.2,0.1,0.3,0.1
			l7.1,7.1l3.1-1.9c1.4-0.9,2.9-1.7,4.5-2.4 M187.9,101.2l0.2-0.7c0.9-3.7,2.3-7.2,4.3-10.4l1.9-3.1l-5.2-5.2 M180.3,104h3.6"/>
	</g>
	<g>
		<path style="fill:#B00200;" d="M97.2,151.3H93c-0.6-2.8-1.8-5.5-3.3-7.9l3-3c1.3-1.3,1.3-3.3,0-4.6l-3.6-3.6
			c-1.3-1.3-3.3-1.3-4.6,0l-3,3c-2.4-1.5-5-2.6-7.9-3.3v-4.3c0-1.8-1.5-3.2-3.2-3.2h-5c-1.8,0-3.2,1.5-3.2,3.2v4.3
			c-2.8,0.6-5.5,1.8-7.9,3.3l-3-3c-1.3-1.3-3.3-1.3-4.6,0l-3.6,3.6c-1.3,1.3-1.3,3.3,0,4.6l3,3c-1.5,2.4-2.6,5-3.3,7.9h-4.3
			c-1.8,0-3.2,1.5-3.2,3.2v5c0,1.8,1.5,3.2,3.2,3.2h4.3c0.6,2.8,1.8,5.5,3.3,7.9l-3,3c-1.3,1.3-1.3,3.3,0,4.6l3.6,3.6
			c1.3,1.3,3.3,1.3,4.6,0l3-3c2.4,1.5,5,2.6,7.9,3.3v4.3c0,1.8,1.5,3.2,3.2,3.2h5c1.8,0,3.2-1.5,3.2-3.2V182
			c2.8-0.6,5.5-1.8,7.9-3.3l3,3c1.3,1.3,3.3,1.3,4.6,0l3.6-3.6c1.3-1.3,1.3-3.3,0-4.6l-3-3c1.5-2.4,2.6-5,3.3-7.9h4.3
			c1.8,0,3.2-1.5,3.2-3.2v-5C100.5,152.7,99,151.3,97.2,151.3z M68,172.2c-8.4,0-15.2-6.8-15.2-15.2c0-8.4,6.8-15.2,15.2-15.2
			s15.2,6.8,15.2,15.2C83.1,165.4,76.3,172.2,68,172.2z"/>
		<path style="fill:#ED0200;" d="M93.8,151.3h-4c-0.6-2.8-1.7-5.5-3.1-7.9l2.8-3c1.2-1.3,1.2-3.3,0-4.6l-3.3-3.6
			c-1.2-1.3-2.1-0.8-3.3,0.5l-2.8,3c-2.2-1.5-5.8-3.1-8.4-3.8v-4.3c0-1.8-1.4-3.2-3.1-3.2h-4.7c-1.7,0-3.1,1.5-3.1,3.2v4.3
			c-2.7,0.6-4.8,1.3-7,2.8l-2.8-3c-1.2-1.3-3.5-0.9-4.7,0.4l-3.3,3.6c-1.2,1.3-1.2,3.3,0,4.6l2.8,3c-1.4,2.4-2.4,5-3.1,7.9h-4
			c-1.7,0-3.1,1.5-3.1,3.2v5c0,1.8,1.4,3.2,3.1,3.2h4c0.6,2.8,1.7,5.5,3.1,7.9l-2.8,3c-1.2,1.3-1.2,3.3,0,4.6l3.3,3.6
			c1.2,1.3,3,2.2,4.2,0.9l2.8-3c2.2,1.5,4.9,1.7,7.5,2.3v4.3c0,1.8,1.4,3.2,3.1,3.2h4.7c1.7,0,3.1-1.5,3.1-3.2V182
			c2.7-0.6,6.7-2.3,9-3.8l2.8,3c1.2,1.3,1.5,1.8,2.7,0.5l3.3-3.6c1.2-1.3,1.2-3.3,0-4.6l-2.8-3c1.4-2.4,2.4-5,3.1-7.9h4
			c1.7,0,3.1-1.5,3.1-3.2v-5C96.8,152.7,95.4,151.3,93.8,151.3z M66.2,173.1c-7.9,0-16.7-7.7-16.7-16.1c0-8.4,8.9-16.1,16.7-16.1
			s15.8,7.7,15.8,16.1C82.1,165.4,74.1,173.1,66.2,173.1z"/>
		<path style="fill:none;stroke:#2B1986;stroke-width:2.7;stroke-linecap:round;stroke-linejoin:round;stroke-miterlimit:10;" d="
			M100.5,155v-0.5c0-1.8-1.5-3.2-3.2-3.2H93c-0.6-2.8-1.8-5.5-3.3-7.9l3-3c1.3-1.3,1.3-3.3,0-4.6l-3.6-3.6c-1.3-1.3-3.3-1.3-4.6,0
			l-3,3c-2.4-1.5-5-2.6-7.9-3.3v-4.3c0-1.8-1.5-3.2-3.2-3.2h-5c-1.8,0-3.2,1.5-3.2,3.2v4.3c-2.8,0.6-5.5,1.8-7.9,3.3l-3-3
			c-1.3-1.3-3.3-1.3-4.6,0l-1.6,1.6 M92.1,178.9l0.6-0.6c1.3-1.3,1.3-3.3,0-4.6l-3-3c1.5-2.4,2.6-5,3.3-7.9h4.3
			c1.8,0,3.2-1.5,3.2-3.2v-1.4 M60.2,181.5c0.7,0.2,1.3,0.4,2,0.5v4.3c0,1.8,1.5,3.2,3.2,3.2h5c1.8,0,3.2-1.5,3.2-3.2V182
			c2.8-0.6,5.5-1.8,7.9-3.3l3,3c1.3,1.3,3.3,1.3,4.6,0l1.5-1.5 M45.5,180.6l1.2,1.2c1.3,1.3,3.3,1.3,4.6,0l3-3
			c1,0.7,2.1,1.2,3.3,1.7 M44,179.1l1.5,1.5 M45.9,170.1c0.1,0.2,0.2,0.4,0.3,0.6l-3,3c-1.3,1.3-1.3,3.3,0,4.6l0.8,0.8 M35.4,158.2
			v1.3c0,1.8,1.5,3.2,3.2,3.2h4.3c0.4,1.5,0.8,3,1.4,4.4 M43.7,148.7c-0.3,0.8-0.5,1.7-0.7,2.6h-4.3c-1.8,0-3.2,1.5-3.2,3.2v1
			 M43.2,135.8c-1.3,1.3-1.3,3.3,0,4.6l3,3c-0.6,0.9-1.1,1.8-1.5,2.8 M68,172.2c-8.4,0-15.2-6.8-15.2-15.2c0-8.4,6.8-15.2,15.2-15.2
			s15.2,6.8,15.2,15.2C83.1,165.4,76.3,172.2,68,172.2z"/>
	</g>
	<path style="fill:#FFFFFF;" d="M227.3,217.3H74.2c-11.4,0-20.6-9.2-20.6-20.6v-4H248v4C248,208,238.7,217.3,227.3,217.3z"/>
	<path style="fill:#9CE8F0;" d="M227.3,217.3H88.6c-11.4,0-20.6-9.2-20.6-20.6v-4h180v4C248,208,238.7,217.3,227.3,217.3z"/>
	<path style="fill:#547CB4;" d="M234,192.6v5.8c0,10.4-9,18.8-20.1,18.8h13.9c11.1,0,20.1-8.4,20.1-18.8v-5.8H234z"/>
	<path style="fill:none;stroke:#2B1986;stroke-width:2.7;stroke-linecap:round;stroke-linejoin:round;stroke-miterlimit:10;" d="
		M246.7,205c-2.8,7.2-10.2,12.3-18.9,12.3H73.7c-4.8,0-9.1-1.5-12.6-4.1"/>
	<path style="fill:none;stroke:#2B1986;stroke-width:2.7;stroke-linecap:round;stroke-linejoin:round;stroke-miterlimit:10;" d="
		M55.1,205.8c-1-2.3-1.6-4.7-1.6-7.3v-5.8H248v5.8"/>
	<path style="fill:#547CB4;" d="M221.7,98.1h-142c-6.4,0-11.7,5.2-11.7,11.7v82.9h165.3v-82.9C233.4,103.3,228.2,98.1,221.7,98.1z"
		/>
	<path style="fill:#9CE8F0;" d="M215.8,98.1H85.6c-6.4,0-11.7,5.2-11.7,11.7v82.9h153.5v-82.9C227.5,103.3,222.2,98.1,215.8,98.1z"
		/>
	<path style="fill:#FFFFFF;" d="M83.2,98.1h-6.9c-4.5,0-8.2,4.8-8.2,10.6v83.9H75v-83.9C75,102.9,78.7,98.1,83.2,98.1z"/>
	<path style="fill:none;stroke:#2B1986;stroke-width:2.7;stroke-linecap:round;stroke-linejoin:round;stroke-miterlimit:10;" d="
		M98.7,98.1h-20c-5.9,0-10.6,4.8-10.6,10.6v3.9"/>
	
		<line style="fill:none;stroke:#2B1986;stroke-width:2.7;stroke-linecap:round;stroke-linejoin:round;stroke-miterlimit:10;" x1="131" y1="98.1" x2="109.8" y2="98.1"/>
	<path style="fill:none;stroke:#2B1986;stroke-width:2.7;stroke-linecap:round;stroke-linejoin:round;stroke-miterlimit:10;" d="
		M233.4,146.6v-37.8c0-5.9-4.8-10.6-10.6-10.6h-82.8"/>
	
		<polyline style="fill:none;stroke:#2B1986;stroke-width:2.7;stroke-linecap:round;stroke-linejoin:round;stroke-miterlimit:10;" points="
		68,181.9 68,192.6 233.4,192.6 233.4,158.9 	"/>
	
		<line style="fill:none;stroke:#2B1986;stroke-width:2.7;stroke-linecap:round;stroke-linejoin:round;stroke-miterlimit:10;" x1="68" y1="153.9" x2="68" y2="174.9"/>
	
		<line style="fill:none;stroke:#2B1986;stroke-width:2.7;stroke-linecap:round;stroke-linejoin:round;stroke-miterlimit:10;" x1="68" y1="122.7" x2="68" y2="146.6"/>
	<path style="fill:#5A4CA1;" d="M214.1,111H86.2c-3,0-5.4,2.4-5.4,5.4v76.2h138.7v-76.2C219.6,113.5,217.1,111,214.1,111z"/>
	<circle style="fill:#2B1986;" cx="150.7" cy="105.6" r="2.9"/>
	<g>
		<polygon style="fill:#958CC2;" points="101.6,111 80.8,131.8 80.8,155.2 125,111 		"/>
		<polygon style="fill:#958CC2;" points="134.4,111 80.8,164.6 80.8,188 157.8,111 		"/>
	</g>
	<path style="fill:none;stroke:#2B1986;stroke-width:2.7;stroke-linecap:round;stroke-linejoin:round;stroke-miterlimit:10;" d="
		M214.1,111H86.2c-3,0-5.4,2.4-5.4,5.4v76.2h138.7v-76.2C219.6,113.5,217.1,111,214.1,111z"/>
	<g>
		<path style="fill:#FF7700;" d="M180.6,115.5c0-17.2-14.5-31-32-29.8c-14.9,1-26.9,13.2-27.7,28.1c-0.5,9.4,3.3,18,9.7,23.8
			c1.9,1.7,3.1,4.2,3.1,6.7l0,0c0,4.9,4,8.9,8.9,8.9h16.2c4.9,0,8.9-4,8.9-8.9v0c0-2.6,1.1-5,3-6.7
			C176.8,132.2,180.6,124.3,180.6,115.5z"/>
		<path style="fill:#547CB4;" d="M158.4,177.1h-14.9c-2.4,0-4.4-2-4.4-4.4v-14.9c0-2.4,2-4.4,4.4-4.4h14.9c2.4,0,4.4,2,4.4,4.4v14.9
			C162.8,175.1,160.8,177.1,158.4,177.1z"/>
		<path style="fill:#FFFFFF;" d="M150.8,85.7c-0.7,0-1.4,0-2.1,0.1c-14.9,1-26.9,13.2-27.7,28.1c-0.5,9.4,3.3,18,9.7,23.8
			c1.9,1.7,3.1,4.2,3.1,6.7c0,4.9,4,8.9,8.9,8.9h8.1V85.7z"/>
		<path style="fill:#FAD336;" d="M173.2,115.5c0-17.2-11.8-31-25.9-29.8c-12,1-21.7,13.2-22.4,28.1c-0.4,9.4,2.7,18,7.9,23.8
			c1.5,1.7,2.5,4.2,2.5,6.7l0,0c0,4.9,3.2,8.9,7.2,8.9h13.1c4,0,7.2-4,7.2-8.9v0c0-2.6,0.9-5,2.4-6.7
			C170.1,132.2,173.2,124.3,173.2,115.5z"/>
		<path style="fill:none;stroke:#2B1986;stroke-width:2.7;stroke-linecap:round;stroke-linejoin:round;stroke-miterlimit:10;" d="
			M179.7,108.1c-3.5-13.6-16.2-23.4-31.1-22.4c-1.9,0.1-3.7,0.4-5.4,0.9"/>
		<path style="fill:none;stroke:#2B1986;stroke-width:2.7;stroke-linecap:round;stroke-linejoin:round;stroke-miterlimit:10;" d="
			M136.1,150.4c1.6,1.8,4,2.9,6.6,2.9h16.2c4.9,0,8.9-4,8.9-8.9v0c0-2.6,1.1-5,3-6.7c6-5.5,9.8-13.4,9.8-22.1c0-0.2,0-0.4,0-0.5"/>
		<path style="fill:none;stroke:#2B1986;stroke-width:2.7;stroke-linecap:round;stroke-linejoin:round;stroke-miterlimit:10;" d="
			M124.1,128.9c1.7,3.3,3.9,6.3,6.6,8.7c1.9,1.7,3.1,4.2,3.1,6.7l0,0c0,1,0.2,2,0.5,3"/>
		<path style="fill:none;stroke:#2B1986;stroke-width:2.7;stroke-linecap:round;stroke-linejoin:round;stroke-miterlimit:10;" d="
			M121.6,109.1c-0.3,1.5-0.6,3.1-0.6,4.7c-0.2,3.9,0.3,7.7,1.5,11.1"/>
		<path style="fill:none;stroke:#2B1986;stroke-width:2.7;stroke-linecap:round;stroke-linejoin:round;stroke-miterlimit:10;" d="
			M137.3,88.9c-6.5,3.3-11.7,9-14.4,15.8"/>
		<path style="fill:#9CE8F0;" d="M154.7,177.1h-11.2c-2.4,0-4.4-2-4.4-4.4v-14.9c0-2.4,2-4.4,4.4-4.4h11.2c2.4,0,4.4,2,4.4,4.4v14.9
			C159.1,175.1,157.1,177.1,154.7,177.1z"/>
		<path style="fill:none;stroke:#2B1986;stroke-width:2.7;stroke-linecap:round;stroke-linejoin:round;stroke-miterlimit:10;" d="
			M158.4,177.1h-14.9c-2.4,0-4.4-2-4.4-4.4v-14.9c0-2.4,2-4.4,4.4-4.4h14.9c2.4,0,4.4,2,4.4,4.4v14.9
			C162.8,175.1,160.8,177.1,158.4,177.1z"/>
		<path style="fill:none;stroke:#FFFFFF;stroke-width:2.7;stroke-linecap:round;stroke-linejoin:round;stroke-miterlimit:10;" d="
			M137.9,142.5c0.4,0.9,0.9,1.7,1.5,2.4"/>
		<path style="fill:none;stroke:#FFFFFF;stroke-width:2.7;stroke-linecap:round;stroke-linejoin:round;stroke-miterlimit:10;" d="
			M134.9,134c1.5,1.4,2.4,3.5,2.4,5.6"/>
		<path style="fill:none;stroke:#FFFFFF;stroke-width:2.7;stroke-linecap:round;stroke-linejoin:round;stroke-miterlimit:10;" d="
			M127.2,115c-0.1,5.5,1.4,10.6,4.2,14.8"/>
		<path style="fill:none;stroke:#FFFFFF;stroke-width:2.7;stroke-linecap:round;stroke-linejoin:round;stroke-miterlimit:10;" d="
			M135.3,97c-3.7,3.4-6.4,8.1-7.5,13.3"/>
		<path style="fill:none;stroke:#FFFFFF;stroke-width:2.7;stroke-linecap:round;stroke-linejoin:round;stroke-miterlimit:10;" d="
			M145.4,91.5c-1.6,0.4-3.1,1-4.6,1.7"/>
		
			<line style="fill:none;stroke:#2B1986;stroke-width:2.7;stroke-linecap:round;stroke-linejoin:round;stroke-miterlimit:10;" x1="136.1" y1="158.5" x2="165.6" y2="158.5"/>
		
			<line style="fill:none;stroke:#2B1986;stroke-width:2.7;stroke-linecap:round;stroke-linejoin:round;stroke-miterlimit:10;" x1="136.1" y1="163.2" x2="165.6" y2="163.2"/>
		
			<line style="fill:none;stroke:#2B1986;stroke-width:2.7;stroke-linecap:round;stroke-linejoin:round;stroke-miterlimit:10;" x1="136.1" y1="168" x2="165.6" y2="168"/>
		
			<line style="fill:none;stroke:#2B1986;stroke-width:2.7;stroke-linecap:round;stroke-linejoin:round;stroke-miterlimit:10;" x1="136.1" y1="172.8" x2="165.6" y2="172.8"/>
	</g>
	<g>
		<g>
			
				<line style="fill:none;stroke:#2B1986;stroke-width:2;stroke-linecap:round;stroke-miterlimit:10;" x1="266.1" y1="84.1" x2="275.6" y2="93.6"/>
			
				<line style="fill:none;stroke:#2B1986;stroke-width:2;stroke-linecap:round;stroke-miterlimit:10;" x1="275.6" y1="84.1" x2="266.1" y2="93.6"/>
		</g>
		<g>
			
				<line style="fill:none;stroke:#2B1986;stroke-width:2;stroke-linecap:round;stroke-miterlimit:10;" x1="141.7" y1="57.7" x2="154" y2="70.1"/>
			
				<line style="fill:none;stroke:#2B1986;stroke-width:2;stroke-linecap:round;stroke-miterlimit:10;" x1="154" y1="57.7" x2="141.7" y2="70.1"/>
		</g>
		
			<circle style="fill:none;stroke:#2B1986;stroke-width:2;stroke-linecap:round;stroke-miterlimit:10;" cx="260.3" cy="168" r="11.7"/>
		
			<circle style="fill:none;stroke:#2B1986;stroke-width:2;stroke-linecap:round;stroke-miterlimit:10;" cx="39.7" cy="202" r="5.8"/>
		
			<circle style="fill:none;stroke:#2B1986;stroke-width:2;stroke-linecap:round;stroke-miterlimit:10;" cx="226" cy="238.6" r="5.8"/>
	</g>
	<g>
		
			<line style="fill:none;stroke:#2B1986;stroke-width:2;stroke-linecap:round;stroke-miterlimit:10;" x1="92.4" y1="59.2" x2="92.3" y2="67.8"/>
		
			<line style="fill:none;stroke:#2B1986;stroke-width:2;stroke-linecap:round;stroke-miterlimit:10;" x1="80.2" y1="64.5" x2="86.2" y2="70.6"/>
		
			<line style="fill:none;stroke:#2B1986;stroke-width:2;stroke-linecap:round;stroke-miterlimit:10;" x1="75.2" y1="76.9" x2="83.8" y2="76.9"/>
		
			<line style="fill:none;stroke:#2B1986;stroke-width:2;stroke-linecap:round;stroke-miterlimit:10;" x1="80.5" y1="89.1" x2="86.6" y2="83"/>
		
			<line style="fill:none;stroke:#2B1986;stroke-width:2;stroke-linecap:round;stroke-miterlimit:10;" x1="92.9" y1="94" x2="92.9" y2="85.4"/>
		
			<line style="fill:none;stroke:#2B1986;stroke-width:2;stroke-linecap:round;stroke-miterlimit:10;" x1="105.1" y1="88.7" x2="99" y2="82.6"/>
		
			<line style="fill:none;stroke:#2B1986;stroke-width:2;stroke-linecap:round;stroke-miterlimit:10;" x1="110" y1="76.4" x2="101.4" y2="76.3"/>
		
			<line style="fill:none;stroke:#2B1986;stroke-width:2;stroke-linecap:round;stroke-miterlimit:10;" x1="104.7" y1="64.2" x2="98.6" y2="70.2"/>
	</g>
</g>
</svg>
