<?xml version="1.0" encoding="utf-8"?>
<!-- Generator: Adobe Illustrator 21.1.0, SVG Export Plug-In . SVG Version: 6.00 Build 0)  -->
<svg version="1.1" id="Warstwa_1" xmlns="http://www.w3.org/2000/svg" xmlns:xlink="http://www.w3.org/1999/xlink" x="0px" y="0px"
	 viewBox="0 0 300 300" style="enable-background:new 0 0 300 300;" xml:space="preserve">
<g>
	<path style="fill:#E4F4FE;" d="M99.6,187.3h-8.2c-4.8,0-8.6,3.9-8.6,8.6v0c0,4.8,3.9,8.6,8.6,8.6h45.3c4.8,0,8.6,3.9,8.6,8.6v0
		c0,4.8-3.9,8.6-8.6,8.6h-28.3c-4.8,0-8.6,3.9-8.6,8.6v0c0,4.8,3.9,8.6,8.6,8.6h119c4.8,0,8.6-3.9,8.6-8.6v0c0-4.8-3.9-8.6-8.6-8.6
		h-34c-4.8,0-8.6-3.9-8.6-8.6v0c0-4.8,3.9-8.6,8.6-8.6h52.1c4.8,0,8.6-3.9,8.6-8.6v0c0-4.8-3.9-8.6-8.6-8.6h-11.3
		c-4.8,0-8.6-3.9-8.6-8.6v0c0-4.8,3.9-8.6,8.6-8.6h5.7c4.8,0,8.6-3.9,8.6-8.6v0c0-4.8-3.9-8.6-8.6-8.6h-27.7c-4.8,0-8.6-3.9-8.6-8.6
		v0c0-4.8,3.9-8.6,8.6-8.6h62.8c4.8,0,8.6-3.9,8.6-8.6v0c0-4.8-3.9-8.6-8.6-8.6h-75.5c-4.8,0-8.6-3.9-8.6-8.6v0
		c0-4.8,3.9-8.6,8.6-8.6h46.1c4.8,0,8.6-3.9,8.6-8.6v0c0-4.8-3.9-8.6-8.6-8.6h-119c-4.8,0-8.6,3.9-8.6,8.6v0c0,4.8,3.9,8.6,8.6,8.6
		h16.2c4.8,0,8.6,3.9,8.6,8.6v0c0,4.8-3.9,8.6-8.6,8.6H47.1c-4.8,0-8.6,3.9-8.6,8.6v0c0,4.8,3.9,8.6,8.6,8.6h11.7
		c4.8,0,8.6,3.9,8.6,8.6v0c0,4.8-3.9,8.6-8.6,8.6H12.1c-4.8,0-8.6,3.9-8.6,8.6v0c0,4.8,3.9,8.6,8.6,8.6h87.6c4.8,0,8.6,3.9,8.6,8.6
		v0C108.3,183.5,104.4,187.3,99.6,187.3z M186.2,178.7L186.2,178.7c0,4.8-3.9,8.6-8.6,8.6h-21.3c-4.8,0-8.6-3.9-8.6-8.6v0
		c0-4.8,3.9-8.6,8.6-8.6h21.3C182.3,170.1,186.2,174,186.2,178.7z"/>
	<g>
		<g>
			<g>
				<g>
					<path style="fill:#9CE8F0;" d="M243.9,177.5l-82.1,45.2c-2.3,1.3-6.4,1.2-9.3-0.2l-47-22.7c-2.8-1.4-3.2-3.5-0.9-4.7l82.1-45.2
						c2.3-1.3,6.4-1.2,9.3,0.2l47,22.7C245.8,174.1,246.2,176.2,243.9,177.5z"/>
					<path style="fill:#465B96;" d="M239,180.9l-77.7,42.8c-2.2,1.2-6.1,1.1-8.8-0.2L108,202c-2.7-1.3-3.1-3.3-0.9-4.5l77.7-42.8
						c2.2-1.2,6.1-1.1,8.8,0.2l44.5,21.5C240.7,177.7,241.1,179.7,239,180.9z"/>
					<path style="fill:#547CB4;" d="M222.8,170.8l-21.8-10.5c-4.4,2.4-12.5,2.3-17.9-0.3l-59.2,32.5c5.4,2.6,6.3,6.7,1.8,9.2
						l21.8,10.5c4.4-2.4,12.5-2.3,17.9,0.3l59.2-32.5C219.1,177.4,218.3,173.3,222.8,170.8z"/>
					<path style="fill:#78D03D;" d="M185.4,180.1c7.6,3.7,8.7,9.4,2.5,12.8c-6.2,3.4-17.3,3.2-24.9-0.5s-8.7-9.4-2.5-12.8
						C166.7,176.2,177.8,176.4,185.4,180.1z"/>
				</g>
				
					<line style="fill:none;stroke:#2B1986;stroke-width:2.7;stroke-linecap:round;stroke-linejoin:round;stroke-miterlimit:10;" x1="123.9" y1="184.4" x2="164.6" y2="162"/>
				<path style="fill:none;stroke:#2B1986;stroke-width:2.7;stroke-linecap:round;stroke-linejoin:round;stroke-miterlimit:10;" d="
					M174.2,156.7l12.4-6.8c2.3-1.3,6.4-1.2,9.3,0.2l47,22.7c2.8,1.4,3.2,3.5,0.9,4.7l-82.1,45.2c-2.3,1.3-6.4,1.2-9.3-0.2l-47-22.7
					c-2.8-1.4-3.2-3.5-0.9-4.7l12.4-6.8"/>
				<path style="fill:none;stroke:#2B1986;stroke-width:2.7;stroke-linecap:round;stroke-linejoin:round;stroke-miterlimit:10;" d="
					M191.4,189.7c-0.6,1.2-1.8,2.2-3.4,3.2c-6.2,3.4-17.3,3.2-24.9-0.5s-8.7-9.4-2.5-12.8c0.8-0.4,1.6-0.8,2.5-1.1"/>
			</g>
			<g>
				<g>
					<path style="fill:#9CE8F0;" d="M243.9,163.1l-82.1,45.2c-2.3,1.3-6.4,1.2-9.3-0.2l-47-22.7c-2.8-1.4-3.2-3.5-0.9-4.7l82.1-45.2
						c2.3-1.3,6.4-1.2,9.3,0.2l47,22.7C245.8,159.7,246.2,161.9,243.9,163.1z"/>
					<path style="fill:#465B96;" d="M239,166.5l-77.7,42.8c-2.2,1.2-6.1,1.1-8.8-0.2L108,187.6c-2.7-1.3-3.1-3.3-0.9-4.5l77.7-42.8
						c2.2-1.2,6.1-1.1,8.8,0.2l44.5,21.5C240.7,163.3,241.1,165.3,239,166.5z"/>
					<path style="fill:#547CB4;" d="M222.8,156.5l-21.8-10.5c-4.4,2.4-12.5,2.3-17.9-0.3l-59.2,32.5c5.4,2.6,6.3,6.7,1.8,9.2
						l21.8,10.5c4.4-2.4,12.5-2.3,17.9,0.3l59.2-32.5C219.1,163,218.3,158.9,222.8,156.5z"/>
					<path style="fill:#78D03D;" d="M185.4,165.8c7.6,3.7,8.7,9.4,2.5,12.8c-6.2,3.4-17.3,3.2-24.9-0.5s-8.7-9.4-2.5-12.8
						C166.7,161.9,177.8,162.1,185.4,165.8z"/>
				</g>
				
					<line style="fill:none;stroke:#2B1986;stroke-width:2.7;stroke-linecap:round;stroke-linejoin:round;stroke-miterlimit:10;" x1="123.9" y1="170" x2="164.6" y2="147.7"/>
				<path style="fill:none;stroke:#2B1986;stroke-width:2.7;stroke-linecap:round;stroke-linejoin:round;stroke-miterlimit:10;" d="
					M174.2,142.4l12.4-6.8c2.3-1.3,6.4-1.2,9.3,0.2l47,22.7c2.8,1.4,3.2,3.5,0.9,4.7l-82.1,45.2c-2.3,1.3-6.4,1.2-9.3-0.2l-47-22.7
					c-2.8-1.4-3.2-3.5-0.9-4.7l12.4-6.8"/>
				<path style="fill:none;stroke:#2B1986;stroke-width:2.7;stroke-linecap:round;stroke-linejoin:round;stroke-miterlimit:10;" d="
					M191.4,175.4c-0.6,1.2-1.8,2.2-3.4,3.2c-6.2,3.4-17.3,3.2-24.9-0.5s-8.7-9.4-2.5-12.8c0.8-0.4,1.6-0.8,2.5-1.1"/>
			</g>
			<g>
				<g>
					<path style="fill:#9CE8F0;" d="M243.9,148.8L161.8,194c-2.3,1.3-6.4,1.2-9.3-0.2l-47-22.7c-2.8-1.4-3.2-3.5-0.9-4.7l82.1-45.2
						c2.3-1.3,6.4-1.2,9.3,0.2l47,22.7C245.8,145.4,246.2,147.5,243.9,148.8z"/>
					<path style="fill:#465B96;" d="M239,152.2l-77.7,42.8c-2.2,1.2-6.1,1.1-8.8-0.2L108,173.3c-2.7-1.3-3.1-3.3-0.9-4.5l77.7-42.8
						c2.2-1.2,6.1-1.1,8.8,0.2l44.5,21.5C240.7,149,241.1,151,239,152.2z"/>
					<path style="fill:#547CB4;" d="M222.8,142.1l-21.8-10.5c-4.4,2.4-12.5,2.3-17.9-0.3l-59.2,32.5c5.4,2.6,6.3,6.7,1.8,9.2
						l21.8,10.5c4.4-2.4,12.5-2.3,17.9,0.3l59.2-32.5C219.1,148.7,218.3,144.6,222.8,142.1z"/>
					<path style="fill:#78D03D;" d="M185.4,151.4c7.6,3.7,8.7,9.4,2.5,12.8c-6.2,3.4-17.3,3.2-24.9-0.5c-7.6-3.7-8.7-9.4-2.5-12.8
						C166.7,147.5,177.8,147.8,185.4,151.4z"/>
				</g>
				
					<line style="fill:none;stroke:#2B1986;stroke-width:2.7;stroke-linecap:round;stroke-linejoin:round;stroke-miterlimit:10;" x1="123.9" y1="155.7" x2="164.6" y2="133.3"/>
				<path style="fill:none;stroke:#2B1986;stroke-width:2.7;stroke-linecap:round;stroke-linejoin:round;stroke-miterlimit:10;" d="
					M174.2,128l12.4-6.8c2.3-1.3,6.4-1.2,9.3,0.2l47,22.7c2.8,1.4,3.2,3.5,0.9,4.7L161.8,194c-2.3,1.3-6.4,1.2-9.3-0.2l-47-22.7
					c-2.8-1.4-3.2-3.5-0.9-4.7l12.4-6.8"/>
				<path style="fill:none;stroke:#2B1986;stroke-width:2.7;stroke-linecap:round;stroke-linejoin:round;stroke-miterlimit:10;" d="
					M191.4,161c-0.6,1.2-1.8,2.2-3.4,3.2c-6.2,3.4-17.3,3.2-24.9-0.5c-7.6-3.7-8.7-9.4-2.5-12.8c0.8-0.4,1.6-0.8,2.5-1.1"/>
			</g>
			<g>
				<g>
					<path style="fill:#9CE8F0;" d="M243.9,134.4l-82.1,45.2c-2.3,1.3-6.4,1.2-9.3-0.2l-47-22.7c-2.8-1.4-3.2-3.5-0.9-4.7l82.1-45.2
						c2.3-1.3,6.4-1.2,9.3,0.2l47,22.7C245.8,131.1,246.2,133.2,243.9,134.4z"/>
					<path style="fill:#465B96;" d="M239,137.8l-77.7,42.8c-2.2,1.2-6.1,1.1-8.8-0.2L108,159c-2.7-1.3-3.1-3.3-0.9-4.5l77.7-42.8
						c2.2-1.2,6.1-1.1,8.8,0.2l44.5,21.5C240.7,134.6,241.1,136.6,239,137.8z"/>
					<path style="fill:#547CB4;" d="M222.8,127.8l-21.8-10.5c-4.4,2.4-12.5,2.3-17.9-0.3l-59.2,32.5c5.4,2.6,6.3,6.7,1.8,9.2
						l21.8,10.5c4.4-2.4,12.5-2.3,17.9,0.3l59.2-32.5C219.1,134.4,218.3,130.2,222.8,127.8z"/>
					<path style="fill:#547CB4;" d="M185.4,137.1c7.6,3.7,8.7,9.4,2.5,12.8c-6.2,3.4-17.3,3.2-24.9-0.5s-8.7-9.4-2.5-12.8
						C166.7,133.2,177.8,133.4,185.4,137.1z"/>
				</g>
				
					<line style="fill:none;stroke:#2B1986;stroke-width:2.7;stroke-linecap:round;stroke-linejoin:round;stroke-miterlimit:10;" x1="123.9" y1="141.4" x2="164.6" y2="119"/>
				<path style="fill:none;stroke:#2B1986;stroke-width:2.7;stroke-linecap:round;stroke-linejoin:round;stroke-miterlimit:10;" d="
					M228,122.5l14.9,7.2c2.8,1.4,3.2,3.5,0.9,4.7l-82.1,45.2c-2.3,1.3-6.4,1.2-9.3-0.2l-47-22.7c-2.8-1.4-3.2-3.5-0.9-4.7l12.4-6.8"
					/>
				<path style="fill:none;stroke:#2B1986;stroke-width:2.7;stroke-linecap:round;stroke-linejoin:round;stroke-miterlimit:10;" d="
					M174.2,113.7l12.4-6.8c2.3-1.3,6.4-1.2,9.3,0.2l24.8,12"/>
				<path style="fill:none;stroke:#2B1986;stroke-width:2.7;stroke-linecap:round;stroke-linejoin:round;stroke-miterlimit:10;" d="
					M191.4,146.7c-0.6,1.2-1.8,2.2-3.4,3.2c-6.2,3.4-17.3,3.2-24.9-0.5s-8.7-9.4-2.5-12.8c0.8-0.4,1.6-0.8,2.5-1.1"/>
			</g>
			<polygon style="fill:#FFDBD0;" points="190.3,217.4 190.3,158.4 128.3,128.4 155.4,113.6 215.1,142.3 215.1,203.6 			"/>
			<polygon style="fill:#FFBBA7;" points="135,125.2 196.7,154.5 196.7,213.6 191.4,216.6 191.4,158.4 129.8,128.4 			"/>
			
				<polygon style="fill:none;stroke:#2B1986;stroke-width:2.7;stroke-linecap:round;stroke-linejoin:round;stroke-miterlimit:10;" points="
				190.3,217.4 190.3,158.4 128.3,128.4 155.4,113.6 215.1,142.3 215.1,203.6 			"/>
			
				<line style="fill:none;stroke:#2B1986;stroke-width:2.7;stroke-linecap:round;stroke-linejoin:round;stroke-miterlimit:10;" x1="187.1" y1="215.7" x2="190.3" y2="217.4"/>
			
				<line style="fill:none;stroke:#2B1986;stroke-width:2.7;stroke-linecap:round;stroke-linejoin:round;stroke-miterlimit:10;" x1="128.3" y1="128.4" x2="128.3" y2="132.4"/>
			
				<line style="fill:none;stroke:#FFFFFF;stroke-width:2.7;stroke-linecap:round;stroke-linejoin:round;stroke-miterlimit:10;" x1="180.6" y1="132.6" x2="183.9" y2="134.2"/>
			
				<polyline style="fill:none;stroke:#FFFFFF;stroke-width:2.7;stroke-linecap:round;stroke-linejoin:round;stroke-miterlimit:10;" points="
				148.3,125.6 156.1,121.1 175.9,130.4 			"/>
		</g>
		<g>
			<ellipse style="fill:#FAF6E5;" cx="97" cy="204.7" rx="27.4" ry="15.9"/>
			<ellipse style="fill:#F97923;" cx="97" cy="206.9" rx="27.4" ry="13.7"/>
			<ellipse style="fill:#FAD336;" cx="97" cy="204.5" rx="27.4" ry="11.3"/>
			<ellipse style="fill:#FAF6E5;" cx="97" cy="204.7" rx="13.9" ry="8.1"/>
			<ellipse style="fill:#F97923;" cx="97" cy="204" rx="13.9" ry="7.4"/>
			<ellipse style="fill:#FAD336;" cx="97" cy="205.2" rx="13.9" ry="6.2"/>
			<path style="fill:none;stroke:#2B1986;stroke-width:2.7;stroke-linecap:round;stroke-linejoin:round;stroke-miterlimit:10;" d="
				M71.6,198.7c1.2-1.8,3-3.4,5.2-4.8"/>
			<path style="fill:none;stroke:#2B1986;stroke-width:2.7;stroke-linecap:round;stroke-linejoin:round;stroke-miterlimit:10;" d="
				M85.6,190.2c3.5-0.9,7.4-1.4,11.5-1.4c15.1,0,27.4,7.1,27.4,15.9s-12.3,15.9-27.4,15.9s-27.4-7.1-27.4-15.9"/>
		</g>
		<g>
			<ellipse style="fill:#FAF6E5;" cx="97" cy="194" rx="27.4" ry="15.9"/>
			<ellipse style="fill:#F97923;" cx="97" cy="196.2" rx="27.4" ry="13.7"/>
			<ellipse style="fill:#FAD336;" cx="97" cy="193.8" rx="27.4" ry="11.3"/>
			<ellipse style="fill:#FAF6E5;" cx="97" cy="194" rx="13.9" ry="8.1"/>
			<ellipse style="fill:#F97923;" cx="97" cy="193.3" rx="13.9" ry="7.4"/>
			<ellipse style="fill:#FAD336;" cx="97" cy="194.6" rx="13.9" ry="6.2"/>
			<path style="fill:none;stroke:#2B1986;stroke-width:2.7;stroke-linecap:round;stroke-linejoin:round;stroke-miterlimit:10;" d="
				M71.6,188c1.2-1.8,3-3.4,5.2-4.8"/>
			<path style="fill:none;stroke:#2B1986;stroke-width:2.7;stroke-linecap:round;stroke-linejoin:round;stroke-miterlimit:10;" d="
				M85.6,179.5c3.5-0.9,7.4-1.4,11.5-1.4c15.1,0,27.4,7.1,27.4,15.9c0,8.8-12.3,15.9-27.4,15.9s-27.4-7.1-27.4-15.9"/>
		</g>
		<g>
			<ellipse style="fill:#FAF6E5;" cx="97" cy="183.3" rx="27.4" ry="15.9"/>
			<ellipse style="fill:#F97923;" cx="97" cy="185.5" rx="27.4" ry="13.7"/>
			<ellipse style="fill:#FAD336;" cx="97" cy="183.1" rx="27.4" ry="11.3"/>
			<ellipse style="fill:#FAF6E5;" cx="97" cy="183.3" rx="13.9" ry="8.1"/>
			<ellipse style="fill:#F97923;" cx="97" cy="182.6" rx="13.9" ry="7.4"/>
			<ellipse style="fill:#FAD336;" cx="97" cy="183.9" rx="13.9" ry="6.2"/>
			<path style="fill:none;stroke:#2B1986;stroke-width:2.7;stroke-linecap:round;stroke-linejoin:round;stroke-miterlimit:10;" d="
				M71.6,177.3c1.2-1.8,3-3.4,5.2-4.8"/>
			<path style="fill:none;stroke:#2B1986;stroke-width:2.7;stroke-linecap:round;stroke-linejoin:round;stroke-miterlimit:10;" d="
				M85.6,168.8c3.5-0.9,7.4-1.4,11.5-1.4c15.1,0,27.4,7.1,27.4,15.9s-12.3,15.9-27.4,15.9s-27.4-7.1-27.4-15.9"/>
		</g>
	</g>
	<g>
		<g>
			
				<line style="fill:none;stroke:#2B1986;stroke-width:2;stroke-linecap:round;stroke-miterlimit:10;" x1="47.6" y1="58.6" x2="58" y2="69"/>
			
				<line style="fill:none;stroke:#2B1986;stroke-width:2;stroke-linecap:round;stroke-miterlimit:10;" x1="58" y1="58.6" x2="47.6" y2="69"/>
		</g>
		<g>
			
				<line style="fill:none;stroke:#2B1986;stroke-width:2;stroke-linecap:round;stroke-miterlimit:10;" x1="261.2" y1="232.4" x2="274.7" y2="245.9"/>
			
				<line style="fill:none;stroke:#2B1986;stroke-width:2;stroke-linecap:round;stroke-miterlimit:10;" x1="274.7" y1="232.4" x2="261.2" y2="245.9"/>
		</g>
		
			<circle style="fill:none;stroke:#2B1986;stroke-width:2;stroke-linecap:round;stroke-miterlimit:10;" cx="233.3" cy="48.3" r="6.4"/>
		
			<circle style="fill:none;stroke:#2B1986;stroke-width:2;stroke-linecap:round;stroke-miterlimit:10;" cx="46.4" cy="229.7" r="6.4"/>
		<g>
			
				<line style="fill:none;stroke:#2B1986;stroke-width:2;stroke-linecap:round;stroke-miterlimit:10;" x1="129.5" y1="74" x2="129.5" y2="83.4"/>
			
				<line style="fill:none;stroke:#2B1986;stroke-width:2;stroke-linecap:round;stroke-miterlimit:10;" x1="116.1" y1="79.7" x2="122.7" y2="86.4"/>
			
				<line style="fill:none;stroke:#2B1986;stroke-width:2;stroke-linecap:round;stroke-miterlimit:10;" x1="110.7" y1="93.3" x2="120.1" y2="93.3"/>
			
				<line style="fill:none;stroke:#2B1986;stroke-width:2;stroke-linecap:round;stroke-miterlimit:10;" x1="116.5" y1="106.7" x2="123.2" y2="100.1"/>
			
				<line style="fill:none;stroke:#2B1986;stroke-width:2;stroke-linecap:round;stroke-miterlimit:10;" x1="130" y1="112.1" x2="130.1" y2="102.7"/>
			
				<line style="fill:none;stroke:#2B1986;stroke-width:2;stroke-linecap:round;stroke-miterlimit:10;" x1="143.4" y1="106.3" x2="136.8" y2="99.6"/>
			
				<line style="fill:none;stroke:#2B1986;stroke-width:2;stroke-linecap:round;stroke-miterlimit:10;" x1="148.8" y1="92.8" x2="139.4" y2="92.7"/>
			
				<line style="fill:none;stroke:#2B1986;stroke-width:2;stroke-linecap:round;stroke-miterlimit:10;" x1="143.1" y1="79.4" x2="136.4" y2="86"/>
		</g>
	</g>
</g>
</svg>
