<?xml version="1.0" encoding="utf-8"?>
<!-- Generator: Adobe Illustrator 21.1.0, SVG Export Plug-In . SVG Version: 6.00 Build 0)  -->
<svg version="1.1" id="Warstwa_1" xmlns="http://www.w3.org/2000/svg" xmlns:xlink="http://www.w3.org/1999/xlink" x="0px" y="0px"
	 viewBox="0 0 300 300" style="enable-background:new 0 0 300 300;" xml:space="preserve">
<g>
	<g>
		<path style="fill:#FFE558;" d="M107.7,192.5h-8.2c-4.8,0-8.6,3.9-8.6,8.6v0c0,4.8,3.9,8.6,8.6,8.6h45.3c4.8,0,8.6,3.9,8.6,8.6v0
			c0,4.8-3.9,8.6-8.6,8.6h-28.3c-4.8,0-8.6,3.9-8.6,8.6v0c0,4.8,3.9,8.6,8.6,8.6h119c4.8,0,8.6-3.9,8.6-8.6v0c0-4.8-3.9-8.6-8.6-8.6
			h-34c-4.8,0-8.6-3.9-8.6-8.6v0c0-4.8,3.9-8.6,8.6-8.6h52.1c4.8,0,8.6-3.9,8.6-8.6v0c0-4.8-3.9-8.6-8.6-8.6h-11.3
			c-4.8,0-8.6-3.9-8.6-8.6v0c0-4.8,3.9-8.6,8.6-8.6h5.7c4.8,0,8.6-3.9,8.6-8.6v0c0-4.8-3.9-8.6-8.6-8.6h-27.7
			c-4.8,0-8.6-3.9-8.6-8.6v0c0-4.8,3.9-8.6,8.6-8.6h62.8c4.8,0,8.6-3.9,8.6-8.6v0c0-4.8-3.9-8.6-8.6-8.6h-75.5
			c-4.8,0-8.6-3.9-8.6-8.6v0c0-4.8,3.9-8.6,8.6-8.6h46.1c4.8,0,8.6-3.9,8.6-8.6v0c0-4.8-3.9-8.6-8.6-8.6h-119
			c-4.8,0-8.6,3.9-8.6,8.6v0c0,4.8,3.9,8.6,8.6,8.6H151c4.8,0,8.6,3.9,8.6,8.6v0c0,4.8-3.9,8.6-8.6,8.6H55.2c-4.8,0-8.6,3.9-8.6,8.6
			v0c0,4.8,3.9,8.6,8.6,8.6h11.7c4.8,0,8.6,3.9,8.6,8.6v0c0,4.8-3.9,8.6-8.6,8.6H20.1c-4.8,0-8.6,3.9-8.6,8.6v0
			c0,4.8,3.9,8.6,8.6,8.6h87.6c4.8,0,8.6,3.9,8.6,8.6v0C116.3,188.7,112.4,192.5,107.7,192.5z"/>
		<path style="fill:#FFE558;" d="M297.4,166.7L297.4,166.7c0-4.8-3.9-8.6-8.6-8.6h-13.6c-4.8,0-8.6,3.9-8.6,8.6v0
			c0,4.8,3.9,8.6,8.6,8.6h13.6C293.5,175.3,297.4,171.4,297.4,166.7z"/>
	</g>
	<g>
		<g>
			<path style="fill:none;stroke:#2B1986;stroke-width:2.7;stroke-linecap:round;stroke-linejoin:round;" d="M166.4,238.4
				c-1.3,1.6-2.6,3.1-3.9,4.5"/>
			
				<path style="fill:none;stroke:#2B1986;stroke-width:2.7;stroke-linecap:round;stroke-linejoin:round;stroke-dasharray:12.3733,12.3733;" d="
				M153.1,251.1c-24.2,17.6-58.1,17.8-82.7-1.8c-23.6-18.8-27.5-53.1-8.7-76.7c15-18.9,42.5-22,61.4-7c15.1,12,17.6,34,5.6,49.1
				c-9.6,12.1-27.2,14.1-39.3,4.5c-6.4-5.1-9.2-12.9-8.3-20.4"/>
			<path style="fill:none;stroke:#2B1986;stroke-width:2.7;stroke-linecap:round;stroke-linejoin:round;" d="M82.7,192.9
				c0.8-1.8,1.8-3.5,3.1-5.1"/>
		</g>
	</g>
	<g>
		
			<ellipse transform="matrix(0.8908 -0.4543 0.4543 0.8908 -87.134 99.6959)" style="fill:#FFFCFC;" cx="163.9" cy="231.2" rx="41" ry="29.7"/>
		<path style="fill:#9CE8F0;" d="M202.8,204.8h-14.5V49c0-4,3.2-7.3,7.3-7.3h0c4,0,7.3,3.2,7.3,7.3V204.8z"/>
		
			<ellipse transform="matrix(0.8908 -0.4543 0.4543 0.8908 -85.5576 102.4366)" style="fill:#547CB4;" cx="170.4" cy="229.3" rx="35.5" ry="29.7"/>
		
			<ellipse transform="matrix(0.8908 -0.4543 0.4543 0.8908 -86.7347 100.1328)" style="fill:#9CE8F0;" cx="165" cy="230.6" rx="33.2" ry="28"/>
		<path style="fill:none;stroke:#2B1986;stroke-width:2.7;stroke-linecap:round;stroke-linejoin:round;stroke-miterlimit:10;" d="
			M138.2,213.8c3.5-3.2,7.6-6.1,12.2-8.4c13.3-6.8,27.5-7.6,37.8-3.2"/>
		<path style="fill:#547CB4;" d="M195.5,208.8l7.3,5V46h0c-4,0-7.3,4.8-7.3,10.8V208.8z"/>
		<path style="fill:none;stroke:#2B1986;stroke-width:2.7;stroke-linecap:round;stroke-linejoin:round;stroke-miterlimit:10;" d="
			M126.3,231.8c1.1-3.4,2.8-6.9,5-10.1"/>
		<path style="fill:none;stroke:#2B1986;stroke-width:2.7;stroke-linecap:round;stroke-linejoin:round;stroke-miterlimit:10;" d="
			M124.9,240.7c0.1,3.4,0.9,6.7,2.4,9.7c7.4,14.6,29.8,18.1,50,7.8c16.5-8.4,25.4-22.9,25.4-36.6l0-6V49.6c0-4.3-3.5-7.8-7.8-7.8h0
			c-4.3,0-7.8,3.5-7.8,7.8v94"/>
		<path style="fill:none;stroke:#FFFFFF;stroke-width:2.7;stroke-linecap:round;stroke-linejoin:round;stroke-miterlimit:10;" d="
			M141.6,225.2c-1,1.8-1.8,3.8-2.4,6"/>
		<path style="fill:none;stroke:#FFFFFF;stroke-width:2.7;stroke-linecap:round;stroke-linejoin:round;stroke-miterlimit:10;" d="
			M165.8,209.3c0,0-11.6,1.2-19.8,9.8"/>
	</g>
	<g>
		
			<ellipse transform="matrix(0.8908 -0.4543 0.4543 0.8908 -49.8772 126.6399)" style="fill:#FFFCFC;" cx="238.6" cy="167.1" rx="28.1" ry="20.3"/>
		<path style="fill:#9CE8F0;" d="M265.2,149h-10V42.2c0-2.7,2.2-5,5-5l0,0c2.7,0,5,2.2,5,5V149z"/>
		
			<ellipse transform="matrix(0.8908 -0.4543 0.4543 0.8908 -48.7959 128.5197)" style="fill:#547CB4;" cx="243" cy="165.8" rx="24.3" ry="20.3"/>
		
			<ellipse transform="matrix(0.8908 -0.4543 0.4543 0.8908 -49.6033 126.9395)" style="fill:#9CE8F0;" cx="239.3" cy="166.7" rx="22.8" ry="19.2"/>
		<path style="fill:none;stroke:#2B1986;stroke-width:2.7;stroke-linecap:round;stroke-linejoin:round;stroke-miterlimit:10;" d="
			M221,155.2c2.4-2.2,5.2-4.2,8.4-5.8c9.1-4.6,18.9-5.2,26-2.2"/>
		<path style="fill:#547CB4;" d="M260.3,151.8l5,3.4V40.1l0,0c-2.7,0-5,3.3-5,7.4V151.8z"/>
		<path style="fill:none;stroke:#2B1986;stroke-width:2.7;stroke-linecap:round;stroke-linejoin:round;stroke-miterlimit:10;" d="
			M212.8,167.5c0.7-2.4,1.9-4.7,3.5-7"/>
		<path style="fill:none;stroke:#2B1986;stroke-width:2.7;stroke-linecap:round;stroke-linejoin:round;stroke-miterlimit:10;" d="
			M211.9,173.6c0.1,2.3,0.6,4.6,1.7,6.7c5.1,10,20.5,12.4,34.3,5.4c11.3-5.8,17.4-15.7,17.4-25.1l0-4.1V42.6c0-2.9-2.4-5.3-5.3-5.3
			l0,0c-2.9,0-5.3,2.4-5.3,5.3v64.5"/>
		<path style="fill:none;stroke:#FFFFFF;stroke-width:2.7;stroke-linecap:round;stroke-linejoin:round;stroke-miterlimit:10;" d="
			M223.3,163c-0.7,1.2-1.2,2.6-1.6,4.1"/>
		<path style="fill:none;stroke:#FFFFFF;stroke-width:2.7;stroke-linecap:round;stroke-linejoin:round;stroke-miterlimit:10;" d="
			M239.9,152.1c0,0-7.9,0.8-13.6,6.8"/>
	</g>
	<g>
		<polygon style="fill:#FFFFFF;" points="91.4,202.8 69.9,181.4 87.5,159.2 113.6,185.2 		"/>
		<polygon style="fill:#933C00;" points="94,205.5 74.2,185.7 92,163.7 116,187.6 		"/>
		<polygon style="fill:#C57500;" points="87.9,199.4 73.1,184.6 91.5,163.1 109.4,181.1 		"/>
		<g>
			<path style="fill:#C57500;" d="M107.8,164.9c12.6,12.6,16.1,30.4,9.2,42.6c10.6-1,20.9-5.6,29-13.7c18.5-18.5,18.5-48.6,0-67.1
				s-48.6-18.5-67.1,0c-8.1,8.1-12.7,18.4-13.7,29C77.4,148.9,95.2,152.3,107.8,164.9z"/>
			<path style="fill:#933C00;" d="M114.2,162.3c11.6,11.6,13.6,32.3,7.7,43.2c9.5-0.7,20.2-8.2,27.3-15.4
				c16.3-16.3,15.7-44.4-1.3-61.5s-44.2-17.7-60.5-1.3c-7.2,7.2-11.1,16.4-11.8,25.9C86.5,147.2,102.5,150.6,114.2,162.3z"/>
			<path style="fill:#9CE8F0;" d="M116.5,188.1c15.2-8.1,44.8-33.4,61.8-50.4c36.1-36.1,31.8-75,31.8-75s-38.9-4.3-75,31.8
				c-17,17-42.3,46.6-50.4,61.8L116.5,188.1z"/>
			<path style="fill:#465B96;" d="M117.3,188.9c14.7-8.6,44-34.2,61-51.3c36.1-36.1,33.4-73.5,33.4-73.5s-34.3,0.4-70.4,36.5
				c-17,17-42.6,46.3-51.3,61L117.3,188.9z"/>
			<path style="fill:#547CB4;" d="M111.9,183.5c14.2-9.1,43.1-35,60.2-52.1c36.1-36.1,38-68.8,38-68.8s-32.7,1.9-68.8,38
				c-17,17-43,46-52.1,60.2L111.9,183.5z"/>
		</g>
		<g>
			<defs>
				
					<rect id="SVGID_1_" x="165.2" y="53.9" transform="matrix(0.7071 0.7071 -0.7071 0.7071 113.9348 -117.9637)" width="68.4" height="49.2"/>
			</defs>
			<clipPath id="SVGID_2_">
				<use xlink:href="#SVGID_1_"  style="overflow:visible;"/>
			</clipPath>
			<g style="clip-path:url(#SVGID_2_);">
				<path style="fill:#FFFFFF;" d="M116.1,187.8c15.2-8.1,44.8-33.4,61.8-50.4c36.1-36.1,31.8-75,31.8-75s-38.9-4.3-75,31.8
					c-17,17-42.3,46.6-50.4,61.8L116.1,187.8z"/>
				<path style="fill:#933C00;" d="M115.3,186.9c14.5-8.8,43.7-34.5,60.7-51.5c36.1-36.1,35.9-71,35.9-71s-34.9-0.2-71,35.9
					c-17,17-42.7,46.2-51.5,60.7L115.3,186.9z"/>
				<path style="fill:#C57500;" d="M111.6,183.2c14.2-9.1,43.1-35,60.2-52.1c36.1-36.1,38-68.8,38-68.8s-32.7,1.9-68.8,38
					c-17,17-43,46-52.1,60.2L111.6,183.2z"/>
			</g>
		</g>
		<path style="fill:none;stroke:#2B1986;stroke-width:2.7;stroke-linecap:round;stroke-linejoin:round;stroke-miterlimit:10;" d="
			M132.3,97.3c-16.9,17.3-40,44.6-47.7,59l31.8,31.8c15.2-8.1,44.8-33.4,61.8-50.4c36.1-36.1,31.8-75,31.8-75s-9.1-1-22.6,2.1"/>
		<path style="fill:none;stroke:#2B1986;stroke-width:2.7;stroke-linecap:round;stroke-linejoin:round;stroke-miterlimit:10;" d="
			M178.4,67.2c-11.7,3.9-25.5,10.8-39.1,23.2"/>
		
			<polygon style="fill:none;stroke:#2B1986;stroke-width:2.7;stroke-linecap:round;stroke-linejoin:round;stroke-miterlimit:10;" points="
			91.4,202.8 69.9,181.4 87.5,159.2 113.6,185.2 		"/>
		<path style="fill:none;stroke:#2B1986;stroke-width:2.7;stroke-linecap:round;stroke-linejoin:round;stroke-miterlimit:10;" d="
			M154.1,183.1c4.7-8.5,6.5-18.1,5.6-27.5"/>
		<path style="fill:none;stroke:#2B1986;stroke-width:2.7;stroke-linecap:round;stroke-linejoin:round;stroke-miterlimit:10;" d="
			M120,187.7c1.2,7.1,0.3,14.1-3,19.9c10.6-1,20.9-5.6,29-13.7c0.9-0.9,1.8-1.9,2.6-2.8"/>
		<path style="fill:none;stroke:#2B1986;stroke-width:2.7;stroke-linecap:round;stroke-linejoin:round;stroke-miterlimit:10;" d="
			M89.7,118.6c-3.9,2.1-7.5,4.8-10.8,8.1c-8.1,8.1-12.7,18.4-13.7,29c5.9-3.3,13-4.2,20.2-2.9"/>
		<path style="fill:none;stroke:#2B1986;stroke-width:2.7;stroke-linecap:round;stroke-linejoin:round;stroke-miterlimit:10;" d="
			M116.6,113c-5.1-0.4-10.2-0.1-15.1,1.1"/>
		
			<line style="fill:none;stroke:#2B1986;stroke-width:2.7;stroke-linecap:round;stroke-linejoin:round;stroke-miterlimit:10;" x1="160.9" y1="74.9" x2="183.4" y2="97.4"/>
		<path style="fill:none;stroke:#FFFFFF;stroke-width:2.7;stroke-linecap:round;stroke-linejoin:round;stroke-miterlimit:10;" d="
			M201.7,69.1c0,0-9.6,1.3-23.1,10.6"/>
		
			<ellipse transform="matrix(0.7071 -0.7071 0.7071 0.7071 -37.7371 144.4993)" style="fill:#AE3C95;" cx="155.6" cy="117.8" rx="15.4" ry="15.4"/>
		
			<ellipse transform="matrix(0.7071 -0.7071 0.7071 0.7071 -37.4141 143.7197)" style="fill:#9CE8F0;" cx="154.8" cy="117" rx="15.4" ry="14.3"/>
		
			<ellipse transform="matrix(0.7071 -0.7071 0.7071 0.7071 -37.1607 143.1078)" style="fill:#007CFF;" cx="154.2" cy="116.4" rx="11.3" ry="11.1"/>
		<path style="fill:none;stroke:#2B1986;stroke-width:2.7;stroke-linecap:round;stroke-linejoin:round;stroke-miterlimit:10;" d="
			M146.8,103.1c1.3-0.8,2.8-1.3,4.2-1.7"/>
		<path style="fill:none;stroke:#2B1986;stroke-width:2.7;stroke-linecap:round;stroke-linejoin:round;stroke-miterlimit:10;" d="
			M157.5,101.3c2.9,0.6,5.7,2,8,4.2c6,6,6,15.8,0,21.8c-6,6-15.8,6-21.8,0c-4.7-4.7-5.7-11.7-3.1-17.4"/>
		<path style="fill:none;stroke:#FFFFFF;stroke-width:2.7;stroke-linecap:round;stroke-linejoin:round;stroke-miterlimit:10;" d="
			M147.8,112c0.3-0.6,0.7-1.1,1.2-1.6c2.5-2.5,6.3-3,9.3-1.5"/>
	</g>
	<g>
		
			<line style="fill:none;stroke:#2B1986;stroke-width:2;stroke-linecap:round;stroke-miterlimit:10;" x1="238.4" y1="117.6" x2="248.9" y2="128.1"/>
		
			<line style="fill:none;stroke:#2B1986;stroke-width:2;stroke-linecap:round;stroke-miterlimit:10;" x1="248.9" y1="117.6" x2="238.4" y2="128.1"/>
	</g>
	<g>
		
			<line style="fill:none;stroke:#2B1986;stroke-width:2;stroke-linecap:round;stroke-miterlimit:10;" x1="82.4" y1="85.4" x2="96" y2="98.9"/>
		
			<line style="fill:none;stroke:#2B1986;stroke-width:2;stroke-linecap:round;stroke-miterlimit:10;" x1="96" y1="85.4" x2="82.4" y2="98.9"/>
	</g>
	
		<circle style="fill:none;stroke:#2B1986;stroke-width:2;stroke-linecap:round;stroke-miterlimit:10;" cx="30.9" cy="219.2" r="6.4"/>
	
		<circle style="fill:none;stroke:#2B1986;stroke-width:2;stroke-linecap:round;stroke-miterlimit:10;" cx="205.5" cy="270.8" r="6.4"/>
</g>
</svg>
